<?xml version="1.0" encoding="utf-8" standalone="no"?>
<!DOCTYPE svg PUBLIC "-//W3C//DTD SVG 1.1//EN"
  "http://www.w3.org/Graphics/SVG/1.1/DTD/svg11.dtd">
<!-- Created with matplotlib (http://matplotlib.org/) -->
<svg height="276pt" version="1.1" viewBox="0 0 349 276" width="349pt" xmlns="http://www.w3.org/2000/svg" xmlns:xlink="http://www.w3.org/1999/xlink">
 <defs>
  <style type="text/css">
*{stroke-linecap:butt;stroke-linejoin:round;stroke-miterlimit:100000;}
  </style>
 </defs>
 <g id="figure_1">
  <g id="patch_1">
   <path d="M 0 276.713674 
L 349.2 276.713674 
L 349.2 0 
L 0 0 
z
" style="fill:#ffffff;"/>
  </g>
  <g id="axes_1">
   <g id="patch_2">
    <path d="M 7.2 269.513674 
L 342 269.513674 
L 342 7.2 
L 7.2 7.2 
z
"/>
   </g>
   <g id="patch_3">
    <path clip-path="url(#pbc83ecdac1)" d="M 174.6 246.981846 
L 172.205907 248.41681 
L 164.780603 251.928717 
L 157.046827 254.695906 
L 149.07906 256.691728 
L 140.954035 257.896962 
L 132.75 258.3 
L 124.545965 257.896962 
L 116.42094 256.691728 
L 108.453173 254.695906 
L 100.719397 251.928717 
L 93.294093 248.41681 
L 86.248771 244.194007 
L 79.651282 239.300975 
L 73.565162 233.784838 
L 68.049025 227.698718 
L 63.155993 221.101229 
L 58.93319 214.055907 
L 55.421283 206.630603 
L 52.654094 198.896827 
L 50.658272 190.92906 
L 49.453038 182.804035 
L 49.05 174.6 
L 49.453038 166.395965 
L 50.658272 158.27094 
L 52.654094 150.303173 
L 55.421283 142.569397 
L 58.93319 135.144093 
L 63.155993 128.098771 
L 68.049025 121.501282 
L 73.565162 115.415162 
L 79.651282 109.899025 
L 86.248771 105.005993 
L 90.904986 102.215166 
L 91.303038 110.317708 
L 92.508272 118.442734 
L 94.504094 126.410501 
L 97.271283 134.144277 
L 100.78319 141.569581 
L 105.005993 148.614902 
L 109.899025 155.212392 
L 115.415162 161.298511 
L 121.501282 166.814649 
L 128.098771 171.70768 
L 132.754986 174.498508 
L 132.75 174.6 
L 133.153038 182.804035 
L 134.358272 190.92906 
L 136.354094 198.896827 
L 139.121283 206.630603 
L 142.63319 214.055907 
L 146.855993 221.101229 
L 151.749025 227.698718 
L 157.265162 233.784838 
L 163.351282 239.300975 
L 169.948771 244.194007 
L 174.6 246.981846 
" style="fill:#00ff00;"/>
   </g>
   <g id="patch_4">
    <path clip-path="url(#pbc83ecdac1)" d="M 300.15 174.6 
L 299.746962 182.804035 
L 298.541728 190.92906 
L 296.545906 198.896827 
L 293.778717 206.630603 
L 290.26681 214.055907 
L 286.044007 221.101229 
L 281.150975 227.698718 
L 275.634838 233.784838 
L 269.548718 239.300975 
L 262.951229 244.194007 
L 255.905907 248.41681 
L 248.480603 251.928717 
L 240.746827 254.695906 
L 232.77906 256.691728 
L 224.654035 257.896962 
L 216.45 258.3 
L 208.245965 257.896962 
L 200.12094 256.691728 
L 192.153173 254.695906 
L 184.419397 251.928717 
L 176.994093 248.41681 
L 174.6 246.981846 
L 179.251229 244.194007 
L 185.848718 239.300975 
L 191.934838 233.784838 
L 197.450975 227.698718 
L 202.344007 221.101229 
L 206.56681 214.055907 
L 210.078717 206.630603 
L 212.845906 198.896827 
L 214.841728 190.92906 
L 216.046962 182.804035 
L 216.45 174.6 
L 216.45 174.6 
L 216.445014 174.498508 
L 221.101229 171.70768 
L 227.698718 166.814649 
L 233.784838 161.298511 
L 239.300975 155.212392 
L 244.194007 148.614902 
L 248.41681 141.569581 
L 251.928717 134.144277 
L 254.695906 126.410501 
L 256.691728 118.442734 
L 257.896962 110.317708 
L 258.295014 102.215166 
L 262.951229 105.005993 
L 269.548718 109.899025 
L 275.634838 115.415162 
L 281.150975 121.501282 
L 286.044007 128.098771 
L 290.26681 135.144093 
L 293.778717 142.569397 
L 296.545906 150.303173 
L 298.541728 158.27094 
L 299.746962 166.395965 
L 300.15 174.6 
L 300.15 174.6 
" style="fill:#0000ff;"/>
   </g>
   <g id="patch_5">
    <path clip-path="url(#pbc83ecdac1)" d="M 258.3 102.113674 
L 258.295014 102.215166 
L 255.905907 100.78319 
L 248.480603 97.271283 
L 240.746827 94.504094 
L 232.77906 92.508272 
L 224.654035 91.303038 
L 216.45 90.9 
L 208.245965 91.303038 
L 200.12094 92.508272 
L 192.153173 94.504094 
L 184.419397 97.271283 
L 176.994093 100.78319 
L 174.6 102.218154 
L 172.205907 100.78319 
L 164.780603 97.271283 
L 157.046827 94.504094 
L 149.07906 92.508272 
L 140.954035 91.303038 
L 132.75 90.9 
L 124.545965 91.303038 
L 116.42094 92.508272 
L 108.453173 94.504094 
L 100.719397 97.271283 
L 93.294093 100.78319 
L 90.904986 102.215166 
L 90.9 102.113674 
L 91.303038 93.909639 
L 92.508272 85.784614 
L 94.504094 77.816846 
L 97.271283 70.08307 
L 100.78319 62.657767 
L 105.005993 55.612445 
L 109.899025 49.014956 
L 115.415162 42.928836 
L 121.501282 37.412699 
L 128.098771 32.519667 
L 135.144093 28.296864 
L 142.569397 24.784957 
L 150.303173 22.017768 
L 158.27094 20.021946 
L 166.395965 18.816712 
L 174.6 18.413674 
L 182.804035 18.816712 
L 190.92906 20.021946 
L 198.896827 22.017768 
L 206.630603 24.784957 
L 214.055907 28.296864 
L 221.101229 32.519667 
L 227.698718 37.412699 
L 233.784838 42.928836 
L 239.300975 49.014956 
L 244.194007 55.612445 
L 248.41681 62.657767 
L 251.928717 70.08307 
L 254.695906 77.816846 
L 256.691728 85.784614 
L 257.896962 93.909639 
L 258.3 102.113674 
L 258.3 102.113674 
" style="fill:#ff0000;"/>
   </g>
   <g id="patch_6">
    <path clip-path="url(#pbc83ecdac1)" d="M 216.45 174.6 
L 216.046962 182.804035 
L 214.841728 190.92906 
L 212.845906 198.896827 
L 210.078717 206.630603 
L 206.56681 214.055907 
L 202.344007 221.101229 
L 197.450975 227.698718 
L 191.934838 233.784838 
L 185.848718 239.300975 
L 179.251229 244.194007 
L 174.6 246.981846 
L 169.948771 244.194007 
L 163.351282 239.300975 
L 157.265162 233.784838 
L 151.749025 227.698718 
L 146.855993 221.101229 
L 142.63319 214.055907 
L 139.121283 206.630603 
L 136.354094 198.896827 
L 134.358272 190.92906 
L 133.153038 182.804035 
L 132.75 174.6 
L 132.754986 174.498508 
L 135.144093 175.930484 
L 142.569397 179.442391 
L 150.303173 182.20958 
L 158.27094 184.205402 
L 166.395965 185.410635 
L 174.6 185.813674 
L 182.804035 185.410635 
L 190.92906 184.205402 
L 198.896827 182.20958 
L 206.630603 179.442391 
L 214.055907 175.930484 
L 216.445014 174.498508 
L 216.45 174.6 
L 216.45 174.6 
" style="fill:#00ffff;"/>
   </g>
   <g id="patch_7">
    <path clip-path="url(#pbc83ecdac1)" d="M 90.904986 102.215166 
L 93.294093 100.78319 
L 100.719397 97.271283 
L 108.453173 94.504094 
L 116.42094 92.508272 
L 124.545965 91.303038 
L 132.75 90.9 
L 140.954035 91.303038 
L 149.07906 92.508272 
L 157.046827 94.504094 
L 164.780603 97.271283 
L 172.205907 100.78319 
L 179.251229 105.005993 
L 174.6 102.218154 
L 169.948771 105.005993 
L 163.351282 109.899025 
L 157.265162 115.415162 
L 151.749025 121.501282 
L 146.855993 128.098771 
L 142.63319 135.144093 
L 139.121283 142.569397 
L 136.354094 150.303173 
L 134.358272 158.27094 
L 133.153038 166.395965 
L 132.754986 174.498508 
L 128.098771 171.70768 
L 121.501282 166.814649 
L 115.415162 161.298511 
L 109.899025 155.212392 
L 105.005993 148.614902 
L 100.78319 141.569581 
L 97.271283 134.144277 
L 94.504094 126.410501 
L 92.508272 118.442734 
L 91.303038 110.317708 
L 90.904986 102.215166 
" style="fill:#ffff00;"/>
   </g>
   <g id="patch_8">
    <path clip-path="url(#pbc83ecdac1)" d="M 258.295014 102.215166 
L 257.896962 110.317708 
L 256.691728 118.442734 
L 254.695906 126.410501 
L 251.928717 134.144277 
L 248.41681 141.569581 
L 244.194007 148.614902 
L 239.300975 155.212392 
L 233.784838 161.298511 
L 227.698718 166.814649 
L 221.101229 171.70768 
L 216.445014 174.498508 
L 216.046962 166.395965 
L 214.841728 158.27094 
L 212.845906 150.303173 
L 210.078717 142.569397 
L 206.56681 135.144093 
L 202.344007 128.098771 
L 197.450975 121.501282 
L 191.934838 115.415162 
L 185.848718 109.899025 
L 179.251229 105.005993 
L 174.6 102.218154 
L 169.948771 105.005993 
L 176.994093 100.78319 
L 184.419397 97.271283 
L 192.153173 94.504094 
L 200.12094 92.508272 
L 208.245965 91.303038 
L 216.45 90.9 
L 224.654035 91.303038 
L 232.77906 92.508272 
L 240.746827 94.504094 
L 248.480603 97.271283 
L 255.905907 100.78319 
L 258.295014 102.215166 
" style="fill:#ff00ff;"/>
   </g>
   <g id="patch_9">
    <path clip-path="url(#pbc83ecdac1)" d="M 216.445014 174.498508 
L 214.055907 175.930484 
L 206.630603 179.442391 
L 198.896827 182.20958 
L 190.92906 184.205402 
L 182.804035 185.410635 
L 174.6 185.813674 
L 166.395965 185.410635 
L 158.27094 184.205402 
L 150.303173 182.20958 
L 142.569397 179.442391 
L 135.144093 175.930484 
L 132.754986 174.498508 
L 133.153038 166.395965 
L 134.358272 158.27094 
L 136.354094 150.303173 
L 139.121283 142.569397 
L 142.63319 135.144093 
L 146.855993 128.098771 
L 151.749025 121.501282 
L 157.265162 115.415162 
L 163.351282 109.899025 
L 169.948771 105.005993 
L 174.6 102.218154 
L 179.251229 105.005993 
L 185.848718 109.899025 
L 191.934838 115.415162 
L 197.450975 121.501282 
L 202.344007 128.098771 
L 206.56681 135.144093 
L 210.078717 142.569397 
L 212.845906 150.303173 
L 214.841728 158.27094 
L 216.046962 166.395965 
L 216.445014 174.498508 
" style="fill:#ffffff;"/>
   </g>
   <g id="patch_10">
    <path d="M 7.2 269.513674 
L 342 269.513674 
" style="fill:none;stroke:#000000;stroke-linecap:square;stroke-linejoin:miter;"/>
   </g>
   <g id="patch_11">
    <path d="M 342 269.513674 
L 342 7.2 
" style="fill:none;stroke:#000000;stroke-linecap:square;stroke-linejoin:miter;"/>
   </g>
   <g id="patch_12">
    <path d="M 7.2 269.513674 
L 7.2 7.2 
" style="fill:none;stroke:#000000;stroke-linecap:square;stroke-linejoin:miter;"/>
   </g>
   <g id="patch_13">
    <path d="M 7.2 7.2 
L 342 7.2 
" style="fill:none;stroke:#000000;stroke-linecap:square;stroke-linejoin:miter;"/>
   </g>
   <g id="matplotlib.axis_1"/>
   <g id="matplotlib.axis_2"/>
  </g>
 </g>
 <defs>
  <clipPath id="pbc83ecdac1">
   <rect height="262.313673703" width="334.8" x="7.2" y="7.2"/>
  </clipPath>
 </defs>
</svg>
