<?xml version="1.0" encoding="utf-8" standalone="no"?>
<!DOCTYPE svg PUBLIC "-//W3C//DTD SVG 1.1//EN"
  "http://www.w3.org/Graphics/SVG/1.1/DTD/svg11.dtd">
<!-- Created with matplotlib (http://matplotlib.org/) -->
<svg height="270pt" version="1.1" viewBox="0 0 428 270" width="428pt" xmlns="http://www.w3.org/2000/svg" xmlns:xlink="http://www.w3.org/1999/xlink">
 <defs>
  <style type="text/css">
*{stroke-linecap:butt;stroke-linejoin:round;stroke-miterlimit:100000;}
  </style>
 </defs>
 <g id="figure_1">
  <g id="patch_1">
   <path d="M 0 270.517187 
L 428.109344 270.517187 
L 428.109344 0 
L 0 0 
z
" style="fill:#ffffff;"/>
  </g>
  <g id="axes_1">
   <g id="patch_2">
    <path clip-path="url(#peb9c69f02e)" d="M 167.062188 205.239062 
L 300.982188 205.239062 
L 300.982188 175.479062 
L 167.062188 175.479062 
z
" style="fill:none;stroke:#000000;stroke-linejoin:miter;"/>
   </g>
   <g id="patch_3">
    <path clip-path="url(#peb9c69f02e)" d="M 167.062188 168.039062 
L 300.982188 168.039062 
L 300.982188 138.279062 
L 167.062188 138.279062 
z
" style="fill:none;stroke:#000000;stroke-linejoin:miter;"/>
   </g>
   <g id="patch_4">
    <path clip-path="url(#peb9c69f02e)" d="M 167.062188 130.839062 
L 300.982188 130.839062 
L 300.982188 101.079062 
L 167.062188 101.079062 
z
" style="fill:none;stroke:#000000;stroke-linejoin:miter;"/>
   </g>
   <g id="patch_5">
    <path clip-path="url(#peb9c69f02e)" d="M 167.062188 93.639062 
L 300.982188 93.639062 
L 300.982188 63.879062 
L 167.062188 63.879062 
z
" style="fill:none;stroke:#000000;stroke-linejoin:miter;"/>
   </g>
   <g id="patch_6">
    <path clip-path="url(#peb9c69f02e)" d="M 167.062188 56.439062 
L 300.982188 56.439062 
L 300.982188 26.679062 
L 167.062188 26.679062 
z
" style="fill:none;stroke:#000000;stroke-linejoin:miter;"/>
   </g>
   <g id="patch_7">
    <path clip-path="url(#peb9c69f02e)" d="M 163.714188 78.759063 
L 148.648188 81.549063 
L 148.648188 78.777663 
L 160.366188 78.777663 
L 160.366188 78.740463 
L 148.648188 78.740463 
L 148.648188 75.969063 
z
" style="fill:#ff0000;stroke:#ff0000;stroke-linejoin:miter;"/>
   </g>
   <g id="patch_8">
    <path clip-path="url(#peb9c69f02e)" d="M 163.714188 86.199062 
L 148.648188 88.989063 
L 148.648188 86.217663 
L 160.366188 86.217663 
L 160.366188 86.180462 
L 148.648188 86.180462 
L 148.648188 83.409062 
z
" style="fill:#ff0000;stroke:#ff0000;stroke-linejoin:miter;"/>
   </g>
   <g id="line2d_1">
    <path clip-path="url(#peb9c69f02e)" d="M 53.230188 78.759063 
L 157.018188 78.759063 
" style="fill:none;stroke:#ff0000;stroke-linecap:square;stroke-width:1.5;"/>
   </g>
   <g id="line2d_2">
    <path clip-path="url(#peb9c69f02e)" d="M 53.230188 102.939063 
L 100.102188 102.939063 
L 100.102188 86.199062 
L 157.018188 86.199062 
" style="fill:none;stroke:#ff0000;stroke-linecap:square;stroke-width:1.5;"/>
   </g>
   <g id="text_1">
    <!-- address: 400001 -->
    <defs>
     <path d="M 34.28125 27.484375 
L 31.296875 27.484375 
Q 23.4375 27.484375 19.453125 24.71875 
Q 15.484375 21.96875 15.484375 16.5 
Q 15.484375 11.578125 18.453125 8.84375 
Q 21.4375 6.109375 26.703125 6.109375 
Q 34.125 6.109375 38.375 11.25 
Q 42.625 16.40625 42.671875 25.484375 
L 42.671875 27.484375 
z
M 51.703125 31.203125 
L 51.703125 0 
L 42.671875 0 
L 42.671875 8.109375 
Q 39.796875 3.21875 35.421875 0.890625 
Q 31.0625 -1.421875 24.8125 -1.421875 
Q 16.453125 -1.421875 11.46875 3.296875 
Q 6.5 8.015625 6.5 15.921875 
Q 6.5 25.046875 12.625 29.78125 
Q 18.75 34.515625 30.609375 34.515625 
L 42.671875 34.515625 
L 42.671875 35.9375 
Q 42.625 42.484375 39.34375 45.4375 
Q 36.078125 48.390625 28.90625 48.390625 
Q 24.3125 48.390625 19.625 47.0625 
Q 14.9375 45.75 10.5 43.21875 
L 10.5 52.203125 
Q 15.484375 54.109375 20.046875 55.046875 
Q 24.609375 56 28.90625 56 
Q 35.6875 56 40.5 54 
Q 45.3125 52 48.296875 48 
Q 50.140625 45.5625 50.921875 41.96875 
Q 51.703125 38.375 51.703125 31.203125 
" id="BitstreamVeraSansMono-Roman-61"/>
     <path d="M 23.875 51.90625 
L 36.1875 51.90625 
L 36.1875 37.109375 
L 23.875 37.109375 
z
M 23.875 14.890625 
L 36.1875 14.890625 
L 36.1875 0 
L 23.875 0 
z
" id="BitstreamVeraSansMono-Roman-3a"/>
     <path d="M 35.890625 63.921875 
L 12.890625 25.390625 
L 35.890625 25.390625 
z
M 34.28125 72.90625 
L 45.703125 72.90625 
L 45.703125 25.390625 
L 55.421875 25.390625 
L 55.421875 17.390625 
L 45.703125 17.390625 
L 45.703125 0 
L 35.890625 0 
L 35.890625 17.390625 
L 4.984375 17.390625 
L 4.984375 26.703125 
z
" id="BitstreamVeraSansMono-Roman-34"/>
     <path id="BitstreamVeraSansMono-Roman-20"/>
     <path d="M 56.390625 43.40625 
Q 53.515625 45.65625 50.53125 46.671875 
Q 47.5625 47.703125 44 47.703125 
Q 35.59375 47.703125 31.140625 42.421875 
Q 26.703125 37.15625 26.703125 27.203125 
L 26.703125 0 
L 17.671875 0 
L 17.671875 54.6875 
L 26.703125 54.6875 
L 26.703125 44 
Q 28.953125 49.8125 33.609375 52.90625 
Q 38.28125 56 44.671875 56 
Q 48 56 50.875 55.171875 
Q 53.765625 54.34375 56.390625 52.59375 
z
" id="BitstreamVeraSansMono-Roman-72"/>
     <path d="M 41.890625 47.703125 
L 41.890625 75.984375 
L 50.875 75.984375 
L 50.875 0 
L 41.890625 0 
L 41.890625 6.890625 
Q 39.65625 2.828125 35.90625 0.703125 
Q 32.171875 -1.421875 27.296875 -1.421875 
Q 17.390625 -1.421875 11.6875 6.265625 
Q 6 13.96875 6 27.484375 
Q 6 40.828125 11.71875 48.40625 
Q 17.4375 56 27.296875 56 
Q 32.234375 56 35.984375 53.875 
Q 39.75 51.765625 41.890625 47.703125 
M 15.484375 27.296875 
Q 15.484375 16.84375 18.796875 11.515625 
Q 22.125 6.203125 28.609375 6.203125 
Q 35.109375 6.203125 38.5 11.5625 
Q 41.890625 16.9375 41.890625 27.296875 
Q 41.890625 37.703125 38.5 43.046875 
Q 35.109375 48.390625 28.609375 48.390625 
Q 22.125 48.390625 18.796875 43.0625 
Q 15.484375 37.75 15.484375 27.296875 
" id="BitstreamVeraSansMono-Roman-64"/>
     <path d="M 47.515625 52.78125 
L 47.515625 44 
Q 43.65625 46.234375 39.75 47.359375 
Q 35.84375 48.484375 31.78125 48.484375 
Q 25.6875 48.484375 22.671875 46.5 
Q 19.671875 44.53125 19.671875 40.484375 
Q 19.671875 36.8125 21.921875 35 
Q 24.171875 33.203125 33.109375 31.5 
L 36.71875 30.8125 
Q 43.40625 29.546875 46.84375 25.734375 
Q 50.296875 21.921875 50.296875 15.828125 
Q 50.296875 7.71875 44.53125 3.140625 
Q 38.765625 -1.421875 28.515625 -1.421875 
Q 24.46875 -1.421875 20.015625 -0.5625 
Q 15.578125 0.296875 10.40625 2 
L 10.40625 11.28125 
Q 15.4375 8.6875 20.015625 7.390625 
Q 24.609375 6.109375 28.71875 6.109375 
Q 34.671875 6.109375 37.9375 8.515625 
Q 41.21875 10.9375 41.21875 15.28125 
Q 41.21875 21.53125 29.25 23.921875 
L 28.859375 24.03125 
L 25.484375 24.703125 
Q 17.71875 26.21875 14.15625 29.8125 
Q 10.59375 33.40625 10.59375 39.59375 
Q 10.59375 47.46875 15.90625 51.734375 
Q 21.234375 56 31.109375 56 
Q 35.5 56 39.546875 55.1875 
Q 43.609375 54.390625 47.515625 52.78125 
" id="BitstreamVeraSansMono-Roman-73"/>
     <path d="M 23.578125 36.625 
Q 23.578125 39.3125 25.453125 41.265625 
Q 27.34375 43.21875 29.984375 43.21875 
Q 32.71875 43.21875 34.671875 41.265625 
Q 36.625 39.3125 36.625 36.625 
Q 36.625 33.890625 34.6875 31.984375 
Q 32.765625 30.078125 29.984375 30.078125 
Q 27.25 30.078125 25.40625 31.9375 
Q 23.578125 33.796875 23.578125 36.625 
M 30.078125 66.40625 
Q 23.1875 66.40625 19.796875 58.984375 
Q 16.40625 51.5625 16.40625 36.375 
Q 16.40625 21.234375 19.796875 13.8125 
Q 23.1875 6.390625 30.078125 6.390625 
Q 37.015625 6.390625 40.40625 13.8125 
Q 43.796875 21.234375 43.796875 36.375 
Q 43.796875 51.5625 40.40625 58.984375 
Q 37.015625 66.40625 30.078125 66.40625 
M 30.078125 74.21875 
Q 41.75 74.21875 47.734375 64.640625 
Q 53.71875 55.078125 53.71875 36.375 
Q 53.71875 17.71875 47.734375 8.140625 
Q 41.75 -1.421875 30.078125 -1.421875 
Q 18.40625 -1.421875 12.453125 8.140625 
Q 6.5 17.71875 6.5 36.375 
Q 6.5 55.078125 12.453125 64.640625 
Q 18.40625 74.21875 30.078125 74.21875 
" id="BitstreamVeraSansMono-Roman-30"/>
     <path d="M 54.296875 29.59375 
L 54.296875 25.203125 
L 15.375 25.203125 
L 15.375 24.90625 
Q 15.375 15.96875 20.03125 11.078125 
Q 24.703125 6.203125 33.203125 6.203125 
Q 37.5 6.203125 42.1875 7.5625 
Q 46.875 8.9375 52.203125 11.71875 
L 52.203125 2.78125 
Q 47.078125 0.6875 42.3125 -0.359375 
Q 37.546875 -1.421875 33.109375 -1.421875 
Q 20.359375 -1.421875 13.171875 6.21875 
Q 6 13.875 6 27.296875 
Q 6 40.375 13.03125 48.1875 
Q 20.0625 56 31.78125 56 
Q 42.234375 56 48.265625 48.921875 
Q 54.296875 41.84375 54.296875 29.59375 
M 45.3125 32.234375 
Q 45.125 40.140625 41.578125 44.265625 
Q 38.03125 48.390625 31.390625 48.390625 
Q 24.90625 48.390625 20.703125 44.09375 
Q 16.5 39.796875 15.71875 32.171875 
z
" id="BitstreamVeraSansMono-Roman-65"/>
     <path d="M 13.1875 8.296875 
L 28.515625 8.296875 
L 28.515625 64.015625 
L 12.015625 60.296875 
L 12.015625 69.28125 
L 28.421875 72.90625 
L 38.28125 72.90625 
L 38.28125 8.296875 
L 53.421875 8.296875 
L 53.421875 0 
L 13.1875 0 
z
" id="BitstreamVeraSansMono-Roman-31"/>
    </defs>
    <g transform="translate(314.3741875 194.0790625)scale(0.11 -0.11)">
     <use xlink:href="#BitstreamVeraSansMono-Roman-61"/>
     <use x="60.205078125" xlink:href="#BitstreamVeraSansMono-Roman-64"/>
     <use x="120.41015625" xlink:href="#BitstreamVeraSansMono-Roman-64"/>
     <use x="180.615234375" xlink:href="#BitstreamVeraSansMono-Roman-72"/>
     <use x="240.8203125" xlink:href="#BitstreamVeraSansMono-Roman-65"/>
     <use x="301.025390625" xlink:href="#BitstreamVeraSansMono-Roman-73"/>
     <use x="361.23046875" xlink:href="#BitstreamVeraSansMono-Roman-73"/>
     <use x="421.435546875" xlink:href="#BitstreamVeraSansMono-Roman-3a"/>
     <use x="481.640625" xlink:href="#BitstreamVeraSansMono-Roman-20"/>
     <use x="541.845703125" xlink:href="#BitstreamVeraSansMono-Roman-34"/>
     <use x="602.05078125" xlink:href="#BitstreamVeraSansMono-Roman-30"/>
     <use x="662.255859375" xlink:href="#BitstreamVeraSansMono-Roman-30"/>
     <use x="722.4609375" xlink:href="#BitstreamVeraSansMono-Roman-30"/>
     <use x="782.666015625" xlink:href="#BitstreamVeraSansMono-Roman-30"/>
     <use x="842.87109375" xlink:href="#BitstreamVeraSansMono-Roman-31"/>
    </g>
   </g>
   <g id="text_2">
    <!-- address: 400002 -->
    <defs>
     <path d="M 18.21875 8.296875 
L 51.703125 8.296875 
L 51.703125 0 
L 7.421875 0 
L 7.421875 8.296875 
Q 16.546875 17.921875 23.375 25.296875 
Q 30.21875 32.671875 32.8125 35.6875 
Q 37.703125 41.65625 39.40625 45.34375 
Q 41.109375 49.03125 41.109375 52.875 
Q 41.109375 58.984375 37.515625 62.453125 
Q 33.9375 65.921875 27.6875 65.921875 
Q 23.25 65.921875 18.359375 64.3125 
Q 13.484375 62.703125 8.015625 59.421875 
L 8.015625 69.390625 
Q 13.03125 71.78125 17.890625 73 
Q 22.75 74.21875 27.484375 74.21875 
Q 38.1875 74.21875 44.703125 68.53125 
Q 51.21875 62.84375 51.21875 53.609375 
Q 51.21875 48.921875 49.046875 44.234375 
Q 46.875 39.546875 42 33.890625 
Q 39.265625 30.71875 34.0625 25.09375 
Q 28.859375 19.484375 18.21875 8.296875 
" id="BitstreamVeraSansMono-Roman-32"/>
    </defs>
    <g transform="translate(314.3741875 156.8790625)scale(0.11 -0.11)">
     <use xlink:href="#BitstreamVeraSansMono-Roman-61"/>
     <use x="60.205078125" xlink:href="#BitstreamVeraSansMono-Roman-64"/>
     <use x="120.41015625" xlink:href="#BitstreamVeraSansMono-Roman-64"/>
     <use x="180.615234375" xlink:href="#BitstreamVeraSansMono-Roman-72"/>
     <use x="240.8203125" xlink:href="#BitstreamVeraSansMono-Roman-65"/>
     <use x="301.025390625" xlink:href="#BitstreamVeraSansMono-Roman-73"/>
     <use x="361.23046875" xlink:href="#BitstreamVeraSansMono-Roman-73"/>
     <use x="421.435546875" xlink:href="#BitstreamVeraSansMono-Roman-3a"/>
     <use x="481.640625" xlink:href="#BitstreamVeraSansMono-Roman-20"/>
     <use x="541.845703125" xlink:href="#BitstreamVeraSansMono-Roman-34"/>
     <use x="602.05078125" xlink:href="#BitstreamVeraSansMono-Roman-30"/>
     <use x="662.255859375" xlink:href="#BitstreamVeraSansMono-Roman-30"/>
     <use x="722.4609375" xlink:href="#BitstreamVeraSansMono-Roman-30"/>
     <use x="782.666015625" xlink:href="#BitstreamVeraSansMono-Roman-30"/>
     <use x="842.87109375" xlink:href="#BitstreamVeraSansMono-Roman-32"/>
    </g>
   </g>
   <g id="text_3">
    <!-- address: 400003 -->
    <defs>
     <path d="M 37.890625 39.015625 
Q 45.0625 37.109375 48.875 32.25 
Q 52.6875 27.390625 52.6875 20.125 
Q 52.6875 10.0625 45.921875 4.3125 
Q 39.15625 -1.421875 27.203125 -1.421875 
Q 22.171875 -1.421875 16.9375 -0.484375 
Q 11.71875 0.4375 6.6875 2.203125 
L 6.6875 12.015625 
Q 11.671875 9.421875 16.5 8.15625 
Q 21.34375 6.890625 26.125 6.890625 
Q 34.234375 6.890625 38.578125 10.546875 
Q 42.921875 14.203125 42.921875 21.09375 
Q 42.921875 27.4375 38.578125 31.171875 
Q 34.234375 34.90625 26.8125 34.90625 
L 19.28125 34.90625 
L 19.28125 43.015625 
L 26.8125 43.015625 
Q 33.59375 43.015625 37.40625 45.984375 
Q 41.21875 48.96875 41.21875 54.296875 
Q 41.21875 59.90625 37.671875 62.90625 
Q 34.125 65.921875 27.59375 65.921875 
Q 23.25 65.921875 18.609375 64.9375 
Q 13.96875 63.96875 8.890625 62.015625 
L 8.890625 71.09375 
Q 14.796875 72.65625 19.40625 73.4375 
Q 24.03125 74.21875 27.59375 74.21875 
Q 38.234375 74.21875 44.609375 68.875 
Q 50.984375 63.53125 50.984375 54.6875 
Q 50.984375 48.6875 47.625 44.671875 
Q 44.28125 40.671875 37.890625 39.015625 
" id="BitstreamVeraSansMono-Roman-33"/>
    </defs>
    <g transform="translate(314.3741875 119.6790625)scale(0.11 -0.11)">
     <use xlink:href="#BitstreamVeraSansMono-Roman-61"/>
     <use x="60.205078125" xlink:href="#BitstreamVeraSansMono-Roman-64"/>
     <use x="120.41015625" xlink:href="#BitstreamVeraSansMono-Roman-64"/>
     <use x="180.615234375" xlink:href="#BitstreamVeraSansMono-Roman-72"/>
     <use x="240.8203125" xlink:href="#BitstreamVeraSansMono-Roman-65"/>
     <use x="301.025390625" xlink:href="#BitstreamVeraSansMono-Roman-73"/>
     <use x="361.23046875" xlink:href="#BitstreamVeraSansMono-Roman-73"/>
     <use x="421.435546875" xlink:href="#BitstreamVeraSansMono-Roman-3a"/>
     <use x="481.640625" xlink:href="#BitstreamVeraSansMono-Roman-20"/>
     <use x="541.845703125" xlink:href="#BitstreamVeraSansMono-Roman-34"/>
     <use x="602.05078125" xlink:href="#BitstreamVeraSansMono-Roman-30"/>
     <use x="662.255859375" xlink:href="#BitstreamVeraSansMono-Roman-30"/>
     <use x="722.4609375" xlink:href="#BitstreamVeraSansMono-Roman-30"/>
     <use x="782.666015625" xlink:href="#BitstreamVeraSansMono-Roman-30"/>
     <use x="842.87109375" xlink:href="#BitstreamVeraSansMono-Roman-33"/>
    </g>
   </g>
   <g id="text_4">
    <!-- address: 400004 -->
    <g transform="translate(314.3741875 82.4790625)scale(0.11 -0.11)">
     <use xlink:href="#BitstreamVeraSansMono-Roman-61"/>
     <use x="60.205078125" xlink:href="#BitstreamVeraSansMono-Roman-64"/>
     <use x="120.41015625" xlink:href="#BitstreamVeraSansMono-Roman-64"/>
     <use x="180.615234375" xlink:href="#BitstreamVeraSansMono-Roman-72"/>
     <use x="240.8203125" xlink:href="#BitstreamVeraSansMono-Roman-65"/>
     <use x="301.025390625" xlink:href="#BitstreamVeraSansMono-Roman-73"/>
     <use x="361.23046875" xlink:href="#BitstreamVeraSansMono-Roman-73"/>
     <use x="421.435546875" xlink:href="#BitstreamVeraSansMono-Roman-3a"/>
     <use x="481.640625" xlink:href="#BitstreamVeraSansMono-Roman-20"/>
     <use x="541.845703125" xlink:href="#BitstreamVeraSansMono-Roman-34"/>
     <use x="602.05078125" xlink:href="#BitstreamVeraSansMono-Roman-30"/>
     <use x="662.255859375" xlink:href="#BitstreamVeraSansMono-Roman-30"/>
     <use x="722.4609375" xlink:href="#BitstreamVeraSansMono-Roman-30"/>
     <use x="782.666015625" xlink:href="#BitstreamVeraSansMono-Roman-30"/>
     <use x="842.87109375" xlink:href="#BitstreamVeraSansMono-Roman-34"/>
    </g>
   </g>
   <g id="text_5">
    <!-- address: 400005 -->
    <defs>
     <path d="M 10.109375 72.90625 
L 47.015625 72.90625 
L 47.015625 64.59375 
L 19.09375 64.59375 
L 19.09375 46.6875 
Q 21.1875 47.46875 23.3125 47.828125 
Q 25.4375 48.1875 27.59375 48.1875 
Q 38.921875 48.1875 45.5625 41.5 
Q 52.203125 34.8125 52.203125 23.390625 
Q 52.203125 11.859375 45.234375 5.21875 
Q 38.28125 -1.421875 26.21875 -1.421875 
Q 20.40625 -1.421875 15.59375 -0.640625 
Q 10.796875 0.140625 6.984375 1.703125 
L 6.984375 11.71875 
Q 11.46875 9.28125 16.015625 8.078125 
Q 20.5625 6.890625 25.296875 6.890625 
Q 33.453125 6.890625 37.859375 11.1875 
Q 42.28125 15.484375 42.28125 23.390625 
Q 42.28125 31.203125 37.71875 35.546875 
Q 33.15625 39.890625 25 39.890625 
Q 21.046875 39.890625 17.28125 38.984375 
Q 13.53125 38.09375 10.109375 36.28125 
z
" id="BitstreamVeraSansMono-Roman-35"/>
    </defs>
    <g transform="translate(314.3741875 45.2790625)scale(0.11 -0.11)">
     <use xlink:href="#BitstreamVeraSansMono-Roman-61"/>
     <use x="60.205078125" xlink:href="#BitstreamVeraSansMono-Roman-64"/>
     <use x="120.41015625" xlink:href="#BitstreamVeraSansMono-Roman-64"/>
     <use x="180.615234375" xlink:href="#BitstreamVeraSansMono-Roman-72"/>
     <use x="240.8203125" xlink:href="#BitstreamVeraSansMono-Roman-65"/>
     <use x="301.025390625" xlink:href="#BitstreamVeraSansMono-Roman-73"/>
     <use x="361.23046875" xlink:href="#BitstreamVeraSansMono-Roman-73"/>
     <use x="421.435546875" xlink:href="#BitstreamVeraSansMono-Roman-3a"/>
     <use x="481.640625" xlink:href="#BitstreamVeraSansMono-Roman-20"/>
     <use x="541.845703125" xlink:href="#BitstreamVeraSansMono-Roman-34"/>
     <use x="602.05078125" xlink:href="#BitstreamVeraSansMono-Roman-30"/>
     <use x="662.255859375" xlink:href="#BitstreamVeraSansMono-Roman-30"/>
     <use x="722.4609375" xlink:href="#BitstreamVeraSansMono-Roman-30"/>
     <use x="782.666015625" xlink:href="#BitstreamVeraSansMono-Roman-30"/>
     <use x="842.87109375" xlink:href="#BitstreamVeraSansMono-Roman-35"/>
    </g>
   </g>
   <g id="text_6">
    <!-- [1,2,3] -->
    <defs>
     <path d="M 37.59375 75.984375 
L 37.59375 -13.1875 
L 16.890625 -13.1875 
L 16.890625 -6.203125 
L 28.609375 -6.203125 
L 28.609375 69 
L 16.890625 69 
L 16.890625 75.984375 
z
" id="BitstreamVeraSansMono-Roman-5d"/>
     <path d="M 24.515625 14.796875 
L 36.8125 14.796875 
L 36.8125 4.6875 
L 27.203125 -14.015625 
L 19.671875 -14.015625 
L 24.515625 4.6875 
z
" id="BitstreamVeraSansMono-Roman-2c"/>
     <path d="M 22.609375 75.984375 
L 43.3125 75.984375 
L 43.3125 69 
L 31.59375 69 
L 31.59375 -6.203125 
L 43.3125 -6.203125 
L 43.3125 -13.1875 
L 22.609375 -13.1875 
z
" id="BitstreamVeraSansMono-Roman-5b"/>
    </defs>
    <g transform="translate(180.4541875 84.3390625)scale(0.14 -0.14)">
     <use xlink:href="#BitstreamVeraSansMono-Roman-5b"/>
     <use x="60.205078125" xlink:href="#BitstreamVeraSansMono-Roman-31"/>
     <use x="120.41015625" xlink:href="#BitstreamVeraSansMono-Roman-2c"/>
     <use x="180.615234375" xlink:href="#BitstreamVeraSansMono-Roman-32"/>
     <use x="240.8203125" xlink:href="#BitstreamVeraSansMono-Roman-2c"/>
     <use x="301.025390625" xlink:href="#BitstreamVeraSansMono-Roman-33"/>
     <use x="361.23046875" xlink:href="#BitstreamVeraSansMono-Roman-5d"/>
    </g>
   </g>
   <g id="text_7">
    <!-- m -->
    <defs>
     <path d="M 33.015625 49.125 
Q 34.671875 52.640625 37.234375 54.3125 
Q 39.796875 56 43.40625 56 
Q 50 56 52.703125 50.890625 
Q 55.421875 45.796875 55.421875 31.6875 
L 55.421875 0 
L 47.21875 0 
L 47.21875 31.296875 
Q 47.21875 42.875 45.921875 45.671875 
Q 44.625 48.484375 41.21875 48.484375 
Q 37.3125 48.484375 35.859375 45.484375 
Q 34.421875 42.484375 34.421875 31.296875 
L 34.421875 0 
L 26.21875 0 
L 26.21875 31.296875 
Q 26.21875 43.015625 24.828125 45.75 
Q 23.4375 48.484375 19.828125 48.484375 
Q 16.265625 48.484375 14.875 45.484375 
Q 13.484375 42.484375 13.484375 31.296875 
L 13.484375 0 
L 5.328125 0 
L 5.328125 54.6875 
L 13.484375 54.6875 
L 13.484375 50 
Q 15.09375 52.9375 17.5 54.46875 
Q 19.921875 56 23 56 
Q 26.703125 56 29.171875 54.296875 
Q 31.640625 52.59375 33.015625 49.125 
" id="BitstreamVeraSansMono-Roman-6d"/>
    </defs>
    <g transform="translate(33.1421875 82.4790625)scale(0.16 -0.16)">
     <use xlink:href="#BitstreamVeraSansMono-Roman-6d"/>
    </g>
   </g>
   <g id="text_8">
    <!-- n -->
    <defs>
     <path d="M 51.3125 33.890625 
L 51.3125 0 
L 42.28125 0 
L 42.28125 33.890625 
Q 42.28125 41.265625 39.6875 44.71875 
Q 37.109375 48.1875 31.59375 48.1875 
Q 25.296875 48.1875 21.890625 43.71875 
Q 18.5 39.265625 18.5 30.90625 
L 18.5 0 
L 9.515625 0 
L 9.515625 54.6875 
L 18.5 54.6875 
L 18.5 46.484375 
Q 20.90625 51.171875 25 53.578125 
Q 29.109375 56 34.71875 56 
Q 43.0625 56 47.1875 50.5 
Q 51.3125 45.015625 51.3125 33.890625 
" id="BitstreamVeraSansMono-Roman-6e"/>
    </defs>
    <g transform="translate(33.1421875 108.5190625)scale(0.16 -0.16)">
     <use xlink:href="#BitstreamVeraSansMono-Roman-6e"/>
    </g>
   </g>
  </g>
 </g>
 <defs>
  <clipPath id="peb9c69f02e">
   <rect height="223.2" width="334.8" x="33.1421875" y="19.2390625"/>
  </clipPath>
 </defs>
</svg>
