<?xml version="1.0" encoding="utf-8" standalone="no"?>
<!DOCTYPE svg PUBLIC "-//W3C//DTD SVG 1.1//EN"
  "http://www.w3.org/Graphics/SVG/1.1/DTD/svg11.dtd">
<!-- Created with matplotlib (http://matplotlib.org/) -->
<svg height="288pt" version="1.1" viewBox="0 0 576 288" width="576pt" xmlns="http://www.w3.org/2000/svg" xmlns:xlink="http://www.w3.org/1999/xlink">
 <defs>
  <style type="text/css">
*{stroke-linecap:butt;stroke-linejoin:round;stroke-miterlimit:100000;}
  </style>
 </defs>
 <g id="figure_1">
  <g id="patch_1">
   <path d="M 0 288 
L 576 288 
L 576 0 
L 0 0 
z
" style="fill:#ffffff;"/>
  </g>
  <g id="axes_1">
   <g id="patch_2">
    <path d="M 57.6 259.2 
L 345.6 259.2 
L 345.6 144 
L 57.6 144 
z
" style="fill:#ffffff;"/>
   </g>
   <g id="line2d_1">
    <path clip-path="url(#p06002a5417)" d="M 57.6 144 
L 58.563211 149.012654 
L 59.526421 163.178162 
L 60.489632 184.031011 
L 62.416054 230.748705 
L 63.379264 248.482313 
L 64.342475 258.056031 
L 65.305686 257.803549 
L 66.268896 247.768811 
L 67.232107 229.698368 
L 70.121739 162.284939 
L 71.08495 148.530436 
L 72.048161 144.012717 
L 73.011371 149.518094 
L 73.974582 164.088352 
L 74.937793 185.187531 
L 76.864214 231.78617 
L 77.827425 249.175113 
L 78.790635 258.283584 
L 79.753846 257.526249 
L 80.717057 247.034922 
L 81.680268 228.635624 
L 84.5699 161.409076 
L 85.53311 148.071652 
L 86.496321 144.050863 
L 87.459532 150.046531 
L 88.422742 165.015106 
L 89.385953 186.351299 
L 91.312375 232.810306 
L 92.275585 249.846905 
L 93.238796 258.486107 
L 94.202007 257.224253 
L 95.165217 246.28097 
L 96.128428 227.560942 
L 98.054849 180.610022 
L 99.01806 160.55096 
L 99.981271 147.636504 
L 100.944482 144.114422 
L 101.907692 150.597733 
L 102.870903 165.958014 
L 104.797324 211.535905 
L 105.760535 233.82066 
L 106.723746 250.497393 
L 107.686957 258.66351 
L 108.650167 256.897695 
L 109.613378 245.507289 
L 110.576589 226.474797 
L 112.50301 179.487561 
L 113.466221 159.71097 
L 114.429431 147.225185 
L 115.392642 144.203364 
L 116.355853 151.171456 
L 117.319064 166.916661 
L 119.245485 212.725886 
L 120.208696 234.816787 
L 121.171906 251.126289 
L 122.135117 258.815717 
L 123.098328 256.54672 
L 124.061538 244.714219 
L 125.024749 225.377667 
L 126.951171 178.374866 
L 127.914381 158.889477 
L 128.877592 146.837877 
L 129.840803 144.317651 
L 130.804013 151.767447 
L 131.767224 167.890623 
L 134.656856 235.798245 
L 135.620067 251.733316 
L 136.583278 258.942658 
L 137.546488 256.171481 
L 138.509699 243.902111 
L 139.47291 224.270038 
L 141.399331 177.272425 
L 142.362542 158.086844 
L 143.325753 146.47475 
L 144.288963 144.457232 
L 145.252174 152.385442 
L 146.215385 168.879471 
L 149.105017 236.764603 
L 150.068227 252.318205 
L 151.031438 259.044278 
L 151.994649 255.772146 
L 152.95786 243.071324 
L 153.92107 223.152398 
L 155.847492 176.180727 
L 156.810702 157.303425 
L 157.773913 146.135964 
L 158.737124 144.622046 
L 159.700334 153.02517 
L 160.663545 169.882766 
L 163.553177 237.715434 
L 164.516388 252.880699 
L 165.479599 259.120532 
L 166.442809 255.348889 
L 167.40602 242.222224 
L 168.369231 222.025241 
L 170.295652 175.100254 
L 171.258863 156.539567 
L 172.222074 145.82167 
L 173.185284 144.81202 
L 174.148495 153.686346 
L 175.111706 170.900068 
L 178.001338 238.650316 
L 178.964548 253.420548 
L 179.927759 259.171387 
L 180.89097 254.901898 
L 181.854181 241.355187 
L 182.817391 220.889066 
L 184.743813 174.031482 
L 185.707023 155.795605 
L 186.670234 145.532006 
L 187.633445 145.02707 
L 188.596656 154.36868 
L 189.559866 171.930925 
L 192.449498 239.568839 
L 193.412709 253.937515 
L 194.37592 259.196821 
L 195.33913 254.431371 
L 196.302341 240.470595 
L 197.265552 219.744372 
L 199.191973 172.974883 
L 200.155184 155.07187 
L 201.118395 145.267101 
L 202.081605 145.267101 
L 203.044816 155.07187 
L 204.008027 172.974883 
L 206.897659 240.470595 
L 207.86087 254.431371 
L 208.82408 259.196821 
L 209.787291 253.937515 
L 210.750502 239.568839 
L 211.713712 218.591667 
L 213.640134 171.930925 
L 214.603344 154.36868 
L 215.566555 145.02707 
L 216.529766 145.532006 
L 217.492977 155.795605 
L 218.456187 174.031482 
L 221.345819 241.355187 
L 222.30903 254.901898 
L 223.272241 259.171387 
L 224.235452 253.420548 
L 225.198662 238.650316 
L 226.161873 217.431459 
L 228.088294 170.900068 
L 229.051505 153.686346 
L 230.014716 144.81202 
L 230.977926 145.82167 
L 231.941137 156.539567 
L 232.904348 175.100254 
L 235.79398 242.222224 
L 236.757191 255.348889 
L 237.720401 259.120532 
L 238.683612 252.880699 
L 239.646823 237.715434 
L 240.610033 216.264259 
L 242.536455 169.882766 
L 243.499666 153.02517 
L 244.462876 144.622046 
L 245.426087 146.135964 
L 246.389298 157.303425 
L 247.352508 176.180727 
L 249.27893 223.152398 
L 250.24214 243.071324 
L 251.205351 255.772146 
L 252.168562 259.044278 
L 253.131773 252.318205 
L 254.094983 236.764603 
L 256.021405 191.068523 
L 256.984615 168.879471 
L 257.947826 152.385442 
L 258.911037 144.457232 
L 259.874247 146.47475 
L 260.837458 158.086844 
L 261.800669 177.272425 
L 263.72709 224.270038 
L 264.690301 243.902111 
L 265.653512 256.171481 
L 266.616722 258.942658 
L 267.579933 251.733316 
L 268.543144 235.798245 
L 271.432776 167.890623 
L 272.395987 151.767447 
L 273.359197 144.317651 
L 274.322408 146.837877 
L 275.285619 158.889477 
L 276.248829 178.374866 
L 278.175251 225.377667 
L 279.138462 244.714219 
L 280.101672 256.54672 
L 281.064883 258.815717 
L 282.028094 251.126289 
L 282.991304 234.816787 
L 285.880936 166.916661 
L 286.844147 151.171456 
L 287.807358 144.203364 
L 288.770569 147.225185 
L 289.733779 159.71097 
L 290.69699 179.487561 
L 292.623411 226.474797 
L 293.586622 245.507289 
L 294.549833 256.897695 
L 295.513043 258.66351 
L 296.476254 250.497393 
L 297.439465 233.82066 
L 300.329097 165.958014 
L 301.292308 150.597733 
L 302.255518 144.114422 
L 303.218729 147.636504 
L 304.18194 160.55096 
L 305.145151 180.610022 
L 307.071572 227.560942 
L 308.034783 246.28097 
L 308.997993 257.224253 
L 309.961204 258.486107 
L 310.924415 249.846905 
L 311.887625 232.810306 
L 314.777258 165.015106 
L 315.740468 150.046531 
L 316.703679 144.050863 
L 317.66689 148.071652 
L 318.6301 161.409076 
L 319.593311 181.74175 
L 321.519732 228.635624 
L 322.482943 247.034922 
L 323.446154 257.526249 
L 324.409365 258.283584 
L 325.372575 249.175113 
L 326.335786 231.78617 
L 329.225418 164.088352 
L 330.188629 149.518094 
L 331.151839 144.012717 
L 332.11505 148.530436 
L 333.078261 162.284939 
L 334.041472 182.882248 
L 335.967893 229.698368 
L 336.931104 247.768811 
L 337.894314 257.803549 
L 338.857525 258.056031 
L 339.820736 248.482313 
L 340.783946 230.748705 
L 343.673579 163.178162 
L 344.636789 149.012654 
L 345.6 144 
L 345.6 144 
" style="fill:none;stroke:#008000;stroke-linecap:square;"/>
   </g>
   <g id="patch_3">
    <path d="M 57.6 259.2 
L 345.6 259.2 
" style="fill:none;stroke:#000000;stroke-linecap:square;stroke-linejoin:miter;"/>
   </g>
   <g id="patch_4">
    <path d="M 345.6 259.2 
L 345.6 144 
" style="fill:none;stroke:#000000;stroke-linecap:square;stroke-linejoin:miter;"/>
   </g>
   <g id="patch_5">
    <path d="M 57.6 259.2 
L 57.6 144 
" style="fill:none;stroke:#000000;stroke-linecap:square;stroke-linejoin:miter;"/>
   </g>
   <g id="patch_6">
    <path d="M 57.6 144 
L 345.6 144 
" style="fill:none;stroke:#000000;stroke-linecap:square;stroke-linejoin:miter;"/>
   </g>
   <g id="matplotlib.axis_1"/>
   <g id="matplotlib.axis_2"/>
   <g id="text_1">
    <!-- This is ax1 -->
    <defs>
     <path d="M -0.296875 72.90625 
L 61.375 72.90625 
L 61.375 64.59375 
L 35.5 64.59375 
L 35.5 0 
L 25.59375 0 
L 25.59375 64.59375 
L -0.296875 64.59375 
z
" id="BitstreamVeraSans-Roman-54"/>
     <path id="BitstreamVeraSans-Roman-20"/>
     <path d="M 34.28125 27.484375 
Q 23.390625 27.484375 19.1875 25 
Q 14.984375 22.515625 14.984375 16.5 
Q 14.984375 11.71875 18.140625 8.90625 
Q 21.296875 6.109375 26.703125 6.109375 
Q 34.1875 6.109375 38.703125 11.40625 
Q 43.21875 16.703125 43.21875 25.484375 
L 43.21875 27.484375 
z
M 52.203125 31.203125 
L 52.203125 0 
L 43.21875 0 
L 43.21875 8.296875 
Q 40.140625 3.328125 35.546875 0.953125 
Q 30.953125 -1.421875 24.3125 -1.421875 
Q 15.921875 -1.421875 10.953125 3.296875 
Q 6 8.015625 6 15.921875 
Q 6 25.140625 12.171875 29.828125 
Q 18.359375 34.515625 30.609375 34.515625 
L 43.21875 34.515625 
L 43.21875 35.40625 
Q 43.21875 41.609375 39.140625 45 
Q 35.0625 48.390625 27.6875 48.390625 
Q 23 48.390625 18.546875 47.265625 
Q 14.109375 46.140625 10.015625 43.890625 
L 10.015625 52.203125 
Q 14.9375 54.109375 19.578125 55.046875 
Q 24.21875 56 28.609375 56 
Q 40.484375 56 46.34375 49.84375 
Q 52.203125 43.703125 52.203125 31.203125 
" id="BitstreamVeraSans-Roman-61"/>
     <path d="M 54.890625 54.6875 
L 35.109375 28.078125 
L 55.90625 0 
L 45.3125 0 
L 29.390625 21.484375 
L 13.484375 0 
L 2.875 0 
L 24.125 28.609375 
L 4.6875 54.6875 
L 15.28125 54.6875 
L 29.78125 35.203125 
L 44.28125 54.6875 
z
" id="BitstreamVeraSans-Roman-78"/>
     <path d="M 44.28125 53.078125 
L 44.28125 44.578125 
Q 40.484375 46.53125 36.375 47.5 
Q 32.28125 48.484375 27.875 48.484375 
Q 21.1875 48.484375 17.84375 46.4375 
Q 14.5 44.390625 14.5 40.28125 
Q 14.5 37.15625 16.890625 35.375 
Q 19.28125 33.59375 26.515625 31.984375 
L 29.59375 31.296875 
Q 39.15625 29.25 43.1875 25.515625 
Q 47.21875 21.78125 47.21875 15.09375 
Q 47.21875 7.46875 41.1875 3.015625 
Q 35.15625 -1.421875 24.609375 -1.421875 
Q 20.21875 -1.421875 15.453125 -0.5625 
Q 10.6875 0.296875 5.421875 2 
L 5.421875 11.28125 
Q 10.40625 8.6875 15.234375 7.390625 
Q 20.0625 6.109375 24.8125 6.109375 
Q 31.15625 6.109375 34.5625 8.28125 
Q 37.984375 10.453125 37.984375 14.40625 
Q 37.984375 18.0625 35.515625 20.015625 
Q 33.0625 21.96875 24.703125 23.78125 
L 21.578125 24.515625 
Q 13.234375 26.265625 9.515625 29.90625 
Q 5.8125 33.546875 5.8125 39.890625 
Q 5.8125 47.609375 11.28125 51.796875 
Q 16.75 56 26.8125 56 
Q 31.78125 56 36.171875 55.265625 
Q 40.578125 54.546875 44.28125 53.078125 
" id="BitstreamVeraSans-Roman-73"/>
     <path d="M 12.40625 8.296875 
L 28.515625 8.296875 
L 28.515625 63.921875 
L 10.984375 60.40625 
L 10.984375 69.390625 
L 28.421875 72.90625 
L 38.28125 72.90625 
L 38.28125 8.296875 
L 54.390625 8.296875 
L 54.390625 0 
L 12.40625 0 
z
" id="BitstreamVeraSans-Roman-31"/>
     <path d="M 54.890625 33.015625 
L 54.890625 0 
L 45.90625 0 
L 45.90625 32.71875 
Q 45.90625 40.484375 42.875 44.328125 
Q 39.84375 48.1875 33.796875 48.1875 
Q 26.515625 48.1875 22.3125 43.546875 
Q 18.109375 38.921875 18.109375 30.90625 
L 18.109375 0 
L 9.078125 0 
L 9.078125 75.984375 
L 18.109375 75.984375 
L 18.109375 46.1875 
Q 21.34375 51.125 25.703125 53.5625 
Q 30.078125 56 35.796875 56 
Q 45.21875 56 50.046875 50.171875 
Q 54.890625 44.34375 54.890625 33.015625 
" id="BitstreamVeraSans-Roman-68"/>
     <path d="M 9.421875 54.6875 
L 18.40625 54.6875 
L 18.40625 0 
L 9.421875 0 
z
M 9.421875 75.984375 
L 18.40625 75.984375 
L 18.40625 64.59375 
L 9.421875 64.59375 
z
" id="BitstreamVeraSans-Roman-69"/>
    </defs>
    <g transform="translate(169.6884375 139.0)scale(0.12 -0.12)">
     <use xlink:href="#BitstreamVeraSans-Roman-54"/>
     <use x="61.083984375" xlink:href="#BitstreamVeraSans-Roman-68"/>
     <use x="124.462890625" xlink:href="#BitstreamVeraSans-Roman-69"/>
     <use x="152.24609375" xlink:href="#BitstreamVeraSans-Roman-73"/>
     <use x="204.345703125" xlink:href="#BitstreamVeraSans-Roman-20"/>
     <use x="236.1328125" xlink:href="#BitstreamVeraSans-Roman-69"/>
     <use x="263.916015625" xlink:href="#BitstreamVeraSans-Roman-73"/>
     <use x="316.015625" xlink:href="#BitstreamVeraSans-Roman-20"/>
     <use x="347.802734375" xlink:href="#BitstreamVeraSans-Roman-61"/>
     <use x="409.08203125" xlink:href="#BitstreamVeraSans-Roman-78"/>
     <use x="468.26171875" xlink:href="#BitstreamVeraSans-Roman-31"/>
    </g>
   </g>
  </g>
  <g id="axes_2">
   <g id="patch_7">
    <path d="M 288 230.4 
L 518.4 230.4 
L 518.4 57.6 
L 288 57.6 
z
" style="fill:#ffffff;"/>
   </g>
   <g id="line2d_2">
    <path clip-path="url(#p5307fdd925)" d="M 288 144 
L 293.39398 118.946553 
L 296.476254 105.464307 
L 299.558528 93.068581 
L 301.870234 84.696496 
L 304.18194 77.26592 
L 305.723077 72.894194 
L 307.264214 69.024564 
L 308.805351 65.684353 
L 310.346488 62.89715 
L 311.887625 60.682634 
L 313.428763 59.056442 
L 314.199331 58.467722 
L 314.9699 58.030059 
L 315.740468 57.744227 
L 316.511037 57.61073 
L 317.281605 57.629805 
L 318.052174 57.801418 
L 318.822742 58.125266 
L 319.593311 58.600776 
L 320.36388 59.227109 
L 321.905017 60.927555 
L 323.446154 63.214597 
L 324.987291 66.072084 
L 326.528428 69.47984 
L 328.069565 73.413801 
L 329.610702 77.846189 
L 331.922408 85.359949 
L 334.234114 93.804685 
L 336.545819 103.046328 
L 339.628094 116.353025 
L 343.480936 134.036365 
L 351.957191 173.360892 
L 355.039465 186.543201 
L 357.351171 195.661901 
L 359.662876 203.960411 
L 361.974582 211.306982 
L 363.515719 215.617563 
L 365.056856 219.422436 
L 366.597993 222.694731 
L 368.13913 225.411344 
L 369.680268 227.55309 
L 371.221405 229.104847 
L 371.991973 229.655891 
L 372.762542 230.055658 
L 373.53311 230.303443 
L 374.303679 230.398808 
L 375.074247 230.341584 
L 375.844816 230.131874 
L 376.615385 229.770047 
L 377.385953 229.256742 
L 378.156522 228.592865 
L 379.697659 226.818352 
L 381.238796 224.459038 
L 382.779933 221.531583 
L 384.32107 218.056657 
L 385.862207 214.058799 
L 387.403344 209.566238 
L 389.71505 201.970124 
L 392.026756 193.453669 
L 394.338462 184.152082 
L 397.420736 170.785391 
L 402.044147 149.443221 
L 408.979264 117.214609 
L 412.061538 103.847918 
L 414.373244 94.546331 
L 416.68495 86.029876 
L 418.996656 78.433762 
L 420.537793 73.941201 
L 422.07893 69.943343 
L 423.620067 66.468417 
L 425.161204 63.540962 
L 426.702341 61.181648 
L 428.243478 59.407135 
L 429.014047 58.743258 
L 429.784615 58.229953 
L 430.555184 57.868126 
L 431.325753 57.658416 
L 432.096321 57.601192 
L 432.86689 57.696557 
L 433.637458 57.944342 
L 434.408027 58.344109 
L 435.178595 58.895153 
L 436.719732 60.44691 
L 438.26087 62.588656 
L 439.802007 65.305269 
L 441.343144 68.577564 
L 442.884281 72.382437 
L 444.425418 76.693018 
L 446.737124 84.039589 
L 449.048829 92.338099 
L 451.360535 101.456799 
L 454.442809 114.639108 
L 458.295652 132.235202 
L 467.542475 175.061844 
L 470.624749 188.113944 
L 472.936455 197.105675 
L 475.248161 205.254294 
L 477.559866 212.430432 
L 479.101003 216.617304 
L 480.64214 220.291407 
L 482.183278 223.426797 
L 483.724415 226.001335 
L 485.265552 227.996841 
L 486.806689 229.399224 
L 487.577258 229.874734 
L 488.347826 230.198582 
L 489.118395 230.370195 
L 489.888963 230.38927 
L 490.659532 230.255773 
L 491.4301 229.969941 
L 492.200669 229.532278 
L 492.971237 228.943558 
L 494.512375 227.317366 
L 496.053512 225.10285 
L 497.594649 222.315647 
L 499.135786 218.975436 
L 500.676923 215.105806 
L 502.21806 210.73408 
L 504.529766 203.303504 
L 506.841472 194.931419 
L 509.153177 185.750741 
L 512.235452 172.505507 
L 516.088294 154.864816 
L 518.4 144 
L 518.4 144 
" style="fill:none;stroke:#0000ff;stroke-linecap:square;"/>
   </g>
   <g id="line2d_3">
    <path clip-path="url(#p5307fdd925)" d="M 288 57.6 
L 288.770569 57.676295 
L 289.541137 57.905046 
L 290.311706 58.285849 
L 291.082274 58.81803 
L 291.852843 59.500651 
L 293.39398 61.312124 
L 294.935117 63.707478 
L 296.476254 66.669797 
L 298.017391 70.178163 
L 299.558528 74.207805 
L 301.099666 78.730266 
L 303.411371 86.367244 
L 305.723077 94.919206 
L 308.034783 104.250381 
L 311.117057 117.646516 
L 315.740468 139.009853 
L 322.675585 171.216558 
L 325.75786 184.553437 
L 328.069565 193.82518 
L 330.381271 202.305892 
L 332.692977 209.860933 
L 334.234114 214.323469 
L 335.775251 218.289434 
L 337.316388 221.730822 
L 338.857525 224.623333 
L 340.398662 226.946543 
L 341.939799 228.684047 
L 342.710368 229.32916 
L 343.480936 229.823575 
L 344.251505 230.166417 
L 345.022074 230.357081 
L 345.792642 230.395231 
L 346.563211 230.280799 
L 347.333779 230.013987 
L 348.104348 229.595266 
L 348.874916 229.025376 
L 350.416054 227.43638 
L 351.957191 225.258218 
L 353.498328 222.506272 
L 355.039465 219.199974 
L 356.580602 215.36267 
L 358.121739 211.021456 
L 360.433445 203.632781 
L 362.745151 195.297368 
L 365.056856 186.147553 
L 368.13913 172.933598 
L 371.991973 155.314964 
L 381.238796 112.515032 
L 384.32107 99.496387 
L 386.632776 90.537021 
L 388.944482 82.42644 
L 391.256187 75.293408 
L 392.797324 71.137754 
L 394.338462 67.496599 
L 395.879599 64.395654 
L 397.420736 61.856815 
L 398.961873 59.89801 
L 400.50301 58.533069 
L 401.273579 58.076477 
L 402.044147 57.771633 
L 402.814716 57.619076 
L 403.585284 57.619076 
L 404.355853 57.771633 
L 405.126421 58.076477 
L 405.89699 58.533069 
L 406.667559 59.140605 
L 408.208696 60.803946 
L 409.749833 63.054756 
L 411.29097 65.877141 
L 412.832107 69.25117 
L 414.373244 73.15302 
L 415.914381 77.555138 
L 418.226087 85.027408 
L 420.537793 93.435935 
L 422.849498 102.647223 
L 425.931773 115.923372 
L 429.784615 133.585631 
L 438.26087 172.933598 
L 441.343144 186.147553 
L 443.654849 195.297368 
L 445.966555 203.632781 
L 448.278261 211.021456 
L 449.819398 215.36267 
L 451.360535 219.199974 
L 452.901672 222.506272 
L 454.442809 225.258218 
L 455.983946 227.43638 
L 457.525084 229.025376 
L 458.295652 229.595266 
L 459.066221 230.013987 
L 459.836789 230.280799 
L 460.607358 230.395231 
L 461.377926 230.357081 
L 462.148495 230.166417 
L 462.919064 229.823575 
L 463.689632 229.32916 
L 464.460201 228.684047 
L 466.001338 226.946543 
L 467.542475 224.623333 
L 469.083612 221.730822 
L 470.624749 218.289434 
L 472.165886 214.323469 
L 473.707023 209.860933 
L 476.018729 202.305892 
L 478.330435 193.82518 
L 480.64214 184.553437 
L 483.724415 171.216558 
L 488.347826 149.896145 
L 495.282943 117.646516 
L 498.365217 104.250381 
L 500.676923 94.919206 
L 502.988629 86.367244 
L 505.300334 78.730266 
L 506.841472 74.207805 
L 508.382609 70.178163 
L 509.923746 66.669797 
L 511.464883 63.707478 
L 513.00602 61.312124 
L 514.547157 59.500651 
L 515.317726 58.81803 
L 516.088294 58.285849 
L 516.858863 57.905046 
L 517.629431 57.676295 
L 518.4 57.6 
L 518.4 57.6 
" style="fill:none;stroke:#ff0000;stroke-dasharray:6.000000,6.000000;stroke-dashoffset:0.0;"/>
   </g>
   <g id="patch_8">
    <path d="M 288 230.4 
L 518.4 230.4 
" style="fill:none;stroke:#000000;stroke-linecap:square;stroke-linejoin:miter;"/>
   </g>
   <g id="patch_9">
    <path d="M 518.4 230.4 
L 518.4 57.6 
" style="fill:none;stroke:#000000;stroke-linecap:square;stroke-linejoin:miter;"/>
   </g>
   <g id="patch_10">
    <path d="M 288 230.4 
L 288 57.6 
" style="fill:none;stroke:#000000;stroke-linecap:square;stroke-linejoin:miter;"/>
   </g>
   <g id="patch_11">
    <path d="M 288 57.6 
L 518.4 57.6 
" style="fill:none;stroke:#000000;stroke-linecap:square;stroke-linejoin:miter;"/>
   </g>
   <g id="matplotlib.axis_3"/>
   <g id="matplotlib.axis_4"/>
   <g id="text_2">
    <!-- This is ax2 -->
    <defs>
     <path d="M 19.1875 8.296875 
L 53.609375 8.296875 
L 53.609375 0 
L 7.328125 0 
L 7.328125 8.296875 
Q 12.9375 14.109375 22.625 23.890625 
Q 32.328125 33.6875 34.8125 36.53125 
Q 39.546875 41.84375 41.421875 45.53125 
Q 43.3125 49.21875 43.3125 52.78125 
Q 43.3125 58.59375 39.234375 62.25 
Q 35.15625 65.921875 28.609375 65.921875 
Q 23.96875 65.921875 18.8125 64.3125 
Q 13.671875 62.703125 7.8125 59.421875 
L 7.8125 69.390625 
Q 13.765625 71.78125 18.9375 73 
Q 24.125 74.21875 28.421875 74.21875 
Q 39.75 74.21875 46.484375 68.546875 
Q 53.21875 62.890625 53.21875 53.421875 
Q 53.21875 48.921875 51.53125 44.890625 
Q 49.859375 40.875 45.40625 35.40625 
Q 44.1875 33.984375 37.640625 27.21875 
Q 31.109375 20.453125 19.1875 8.296875 
" id="BitstreamVeraSans-Roman-32"/>
    </defs>
    <g transform="translate(371.2884375 52.6)scale(0.12 -0.12)">
     <use xlink:href="#BitstreamVeraSans-Roman-54"/>
     <use x="61.083984375" xlink:href="#BitstreamVeraSans-Roman-68"/>
     <use x="124.462890625" xlink:href="#BitstreamVeraSans-Roman-69"/>
     <use x="152.24609375" xlink:href="#BitstreamVeraSans-Roman-73"/>
     <use x="204.345703125" xlink:href="#BitstreamVeraSans-Roman-20"/>
     <use x="236.1328125" xlink:href="#BitstreamVeraSans-Roman-69"/>
     <use x="263.916015625" xlink:href="#BitstreamVeraSans-Roman-73"/>
     <use x="316.015625" xlink:href="#BitstreamVeraSans-Roman-20"/>
     <use x="347.802734375" xlink:href="#BitstreamVeraSans-Roman-61"/>
     <use x="409.08203125" xlink:href="#BitstreamVeraSans-Roman-78"/>
     <use x="468.26171875" xlink:href="#BitstreamVeraSans-Roman-32"/>
    </g>
   </g>
  </g>
 </g>
 <defs>
  <clipPath id="p5307fdd925">
   <rect height="172.8" width="230.4" x="288.0" y="57.6"/>
  </clipPath>
  <clipPath id="p06002a5417">
   <rect height="115.2" width="288.0" x="57.6" y="144.0"/>
  </clipPath>
 </defs>
</svg>
