<?xml version="1.0" encoding="utf-8" standalone="no"?>
<!DOCTYPE svg PUBLIC "-//W3C//DTD SVG 1.1//EN"
  "http://www.w3.org/Graphics/SVG/1.1/DTD/svg11.dtd">
<!-- Created with matplotlib (http://matplotlib.org/) -->
<svg height="288pt" version="1.1" viewBox="0 0 576 288" width="576pt" xmlns="http://www.w3.org/2000/svg" xmlns:xlink="http://www.w3.org/1999/xlink">
 <defs>
  <style type="text/css">
*{stroke-linecap:butt;stroke-linejoin:round;stroke-miterlimit:100000;}
  </style>
 </defs>
 <g id="figure_1">
  <g id="patch_1">
   <path d="M 0 288 
L 576 288 
L 576 0 
L 0 0 
z
" style="fill:#ffffff;"/>
  </g>
  <g id="axes_1">
   <g id="patch_2">
    <path d="M 72 118.08 
L 216 118.08 
L 216 28.8 
L 72 28.8 
z
" style="fill:#ffffff;"/>
   </g>
   <g id="line2d_1">
    <path clip-path="url(#p6fd8cb44a3)" d="M 144 28.8 
L 150.809958 28.82225 
L 157.558862 28.88898 
L 170.63257 29.155564 
L 182.753328 29.59869 
L 193.48744 30.216591 
L 202.450823 31.006805 
L 209.322757 31.966181 
L 211.894407 32.508135 
L 213.857354 33.090894 
L 215.193999 33.713877 
L 215.892359 34.376463 
L 215.946173 35.07799 
L 215.354958 35.817761 
L 214.124015 36.595037 
L 212.264379 37.409043 
L 209.792724 38.258969 
L 206.731209 39.143967 
L 198.95343 41.015615 
L 189.209342 43.016528 
L 171.685283 46.242687 
L 131.559137 53.395476 
L 118.42678 55.952615 
L 106.209467 58.579475 
L 95.344351 61.265584 
L 90.542642 62.627519 
L 86.220201 64.000236 
L 82.415781 65.382364 
L 79.16349 66.772528 
L 76.492487 68.16934 
L 74.426718 69.57141 
L 72.984703 70.977338 
L 72.179372 72.385724 
L 72.017944 73.795163 
L 72.501866 75.204252 
L 73.6268 76.611584 
L 75.382661 78.015758 
L 77.753706 79.415373 
L 80.718677 80.809035 
L 84.250994 82.195354 
L 88.318986 83.572948 
L 92.886182 84.940444 
L 97.911636 86.296479 
L 109.153391 88.968771 
L 121.642005 91.579173 
L 134.930619 94.117277 
L 155.319764 97.766833 
L 180.818319 102.2883 
L 191.811732 104.380954 
L 201.094375 106.350279 
L 208.334105 108.188425 
L 211.103796 109.055995 
L 213.271872 109.888064 
L 214.818896 110.683805 
L 215.730998 111.442423 
L 216 112.163161 
L 215.623491 112.845303 
L 214.604846 113.488167 
L 212.953198 114.091113 
L 210.683354 114.65354 
L 207.815666 115.174887 
L 204.375842 115.654635 
L 195.908 116.487461 
L 185.582818 117.148699 
L 173.769747 117.635711 
L 160.891474 117.946558 
L 147.408801 118.08 
L 133.804157 118.035505 
L 120.564334 117.81325 
L 108.16307 117.414121 
L 97.044101 116.83971 
L 87.605278 116.092305 
L 80.184334 115.174887 
L 77.316646 114.65354 
L 75.046802 114.091113 
L 73.395154 113.488167 
L 72.376509 112.845303 
L 72 112.163161 
L 72.269002 111.442423 
L 73.181104 110.683805 
L 74.728128 109.888064 
L 76.896204 109.055995 
L 79.665895 108.188425 
L 86.905625 106.350279 
L 96.188268 104.380954 
L 107.181681 102.2883 
L 132.680236 97.766833 
L 153.069381 94.117277 
L 166.357995 91.579173 
L 178.846609 88.968771 
L 190.088364 86.296479 
L 195.113818 84.940444 
L 199.681014 83.572948 
L 203.749006 82.195354 
L 207.281323 80.809035 
L 210.246294 79.415373 
L 212.617339 78.015758 
L 214.3732 76.611584 
L 215.498134 75.204252 
L 215.982056 73.795163 
L 215.820628 72.385724 
L 215.015297 70.977338 
L 213.573282 69.57141 
L 211.507513 68.16934 
L 208.83651 66.772528 
L 205.584219 65.382364 
L 201.779799 64.000236 
L 197.457358 62.627519 
L 192.655649 61.265584 
L 181.790533 58.579475 
L 169.57322 55.952615 
L 156.440863 53.395476 
L 136.059341 49.712706 
L 104.293534 44.062985 
L 93.693102 42.000401 
L 84.89272 40.063154 
L 78.207276 38.258969 
L 75.735621 37.409043 
L 73.875985 36.595037 
L 72.645042 35.817761 
L 72.053827 35.07799 
L 72.107641 34.376463 
L 72.806001 33.713877 
L 74.142646 33.090894 
L 76.105593 32.508135 
L 78.677243 31.966181 
L 81.83454 31.465571 
L 89.787851 30.59034 
L 99.680946 29.885931 
L 111.159837 29.355153 
L 123.813795 29.000121 
L 137.190042 28.82225 
L 144 28.8 
L 144 28.8 
" style="fill:none;stroke:#0000ff;stroke-linecap:square;"/>
   </g>
   <g id="patch_3">
    <path d="M 216 118.08 
L 216 28.8 
" style="fill:none;stroke:#000000;stroke-linecap:square;stroke-linejoin:miter;"/>
   </g>
   <g id="patch_4">
    <path d="M 72 118.08 
L 72 28.8 
" style="fill:none;stroke:#000000;stroke-linecap:square;stroke-linejoin:miter;"/>
   </g>
   <g id="patch_5">
    <path d="M 72 118.08 
L 216 118.08 
" style="fill:none;stroke:#000000;stroke-linecap:square;stroke-linejoin:miter;"/>
   </g>
   <g id="patch_6">
    <path d="M 72 28.8 
L 216 28.8 
" style="fill:none;stroke:#000000;stroke-linecap:square;stroke-linejoin:miter;"/>
   </g>
   <g id="matplotlib.axis_1"/>
   <g id="matplotlib.axis_2"/>
   <g id="text_1">
    <!-- subplot(2,3,1) -->
    <defs>
     <path d="M 12.40625 8.296875 
L 28.515625 8.296875 
L 28.515625 63.921875 
L 10.984375 60.40625 
L 10.984375 69.390625 
L 28.421875 72.90625 
L 38.28125 72.90625 
L 38.28125 8.296875 
L 54.390625 8.296875 
L 54.390625 0 
L 12.40625 0 
z
" id="BitstreamVeraSans-Roman-31"/>
     <path d="M 40.578125 39.3125 
Q 47.65625 37.796875 51.625 33 
Q 55.609375 28.21875 55.609375 21.1875 
Q 55.609375 10.40625 48.1875 4.484375 
Q 40.765625 -1.421875 27.09375 -1.421875 
Q 22.515625 -1.421875 17.65625 -0.515625 
Q 12.796875 0.390625 7.625 2.203125 
L 7.625 11.71875 
Q 11.71875 9.328125 16.59375 8.109375 
Q 21.484375 6.890625 26.8125 6.890625 
Q 36.078125 6.890625 40.9375 10.546875 
Q 45.796875 14.203125 45.796875 21.1875 
Q 45.796875 27.640625 41.28125 31.265625 
Q 36.765625 34.90625 28.71875 34.90625 
L 20.21875 34.90625 
L 20.21875 43.015625 
L 29.109375 43.015625 
Q 36.375 43.015625 40.234375 45.921875 
Q 44.09375 48.828125 44.09375 54.296875 
Q 44.09375 59.90625 40.109375 62.90625 
Q 36.140625 65.921875 28.71875 65.921875 
Q 24.65625 65.921875 20.015625 65.03125 
Q 15.375 64.15625 9.8125 62.3125 
L 9.8125 71.09375 
Q 15.4375 72.65625 20.34375 73.4375 
Q 25.25 74.21875 29.59375 74.21875 
Q 40.828125 74.21875 47.359375 69.109375 
Q 53.90625 64.015625 53.90625 55.328125 
Q 53.90625 49.265625 50.4375 45.09375 
Q 46.96875 40.921875 40.578125 39.3125 
" id="BitstreamVeraSans-Roman-33"/>
     <path d="M 8.5 21.578125 
L 8.5 54.6875 
L 17.484375 54.6875 
L 17.484375 21.921875 
Q 17.484375 14.15625 20.5 10.265625 
Q 23.53125 6.390625 29.59375 6.390625 
Q 36.859375 6.390625 41.078125 11.03125 
Q 45.3125 15.671875 45.3125 23.6875 
L 45.3125 54.6875 
L 54.296875 54.6875 
L 54.296875 0 
L 45.3125 0 
L 45.3125 8.40625 
Q 42.046875 3.421875 37.71875 1 
Q 33.40625 -1.421875 27.6875 -1.421875 
Q 18.265625 -1.421875 13.375 4.4375 
Q 8.5 10.296875 8.5 21.578125 
" id="BitstreamVeraSans-Roman-75"/>
     <path d="M 31 75.875 
Q 24.46875 64.65625 21.28125 53.65625 
Q 18.109375 42.671875 18.109375 31.390625 
Q 18.109375 20.125 21.3125 9.0625 
Q 24.515625 -2 31 -13.1875 
L 23.1875 -13.1875 
Q 15.875 -1.703125 12.234375 9.375 
Q 8.59375 20.453125 8.59375 31.390625 
Q 8.59375 42.28125 12.203125 53.3125 
Q 15.828125 64.359375 23.1875 75.875 
z
" id="BitstreamVeraSans-Roman-28"/>
     <path d="M 30.609375 48.390625 
Q 23.390625 48.390625 19.1875 42.75 
Q 14.984375 37.109375 14.984375 27.296875 
Q 14.984375 17.484375 19.15625 11.84375 
Q 23.34375 6.203125 30.609375 6.203125 
Q 37.796875 6.203125 41.984375 11.859375 
Q 46.1875 17.53125 46.1875 27.296875 
Q 46.1875 37.015625 41.984375 42.703125 
Q 37.796875 48.390625 30.609375 48.390625 
M 30.609375 56 
Q 42.328125 56 49.015625 48.375 
Q 55.71875 40.765625 55.71875 27.296875 
Q 55.71875 13.875 49.015625 6.21875 
Q 42.328125 -1.421875 30.609375 -1.421875 
Q 18.84375 -1.421875 12.171875 6.21875 
Q 5.515625 13.875 5.515625 27.296875 
Q 5.515625 40.765625 12.171875 48.375 
Q 18.84375 56 30.609375 56 
" id="BitstreamVeraSans-Roman-6f"/>
     <path d="M 44.28125 53.078125 
L 44.28125 44.578125 
Q 40.484375 46.53125 36.375 47.5 
Q 32.28125 48.484375 27.875 48.484375 
Q 21.1875 48.484375 17.84375 46.4375 
Q 14.5 44.390625 14.5 40.28125 
Q 14.5 37.15625 16.890625 35.375 
Q 19.28125 33.59375 26.515625 31.984375 
L 29.59375 31.296875 
Q 39.15625 29.25 43.1875 25.515625 
Q 47.21875 21.78125 47.21875 15.09375 
Q 47.21875 7.46875 41.1875 3.015625 
Q 35.15625 -1.421875 24.609375 -1.421875 
Q 20.21875 -1.421875 15.453125 -0.5625 
Q 10.6875 0.296875 5.421875 2 
L 5.421875 11.28125 
Q 10.40625 8.6875 15.234375 7.390625 
Q 20.0625 6.109375 24.8125 6.109375 
Q 31.15625 6.109375 34.5625 8.28125 
Q 37.984375 10.453125 37.984375 14.40625 
Q 37.984375 18.0625 35.515625 20.015625 
Q 33.0625 21.96875 24.703125 23.78125 
L 21.578125 24.515625 
Q 13.234375 26.265625 9.515625 29.90625 
Q 5.8125 33.546875 5.8125 39.890625 
Q 5.8125 47.609375 11.28125 51.796875 
Q 16.75 56 26.8125 56 
Q 31.78125 56 36.171875 55.265625 
Q 40.578125 54.546875 44.28125 53.078125 
" id="BitstreamVeraSans-Roman-73"/>
     <path d="M 11.71875 12.40625 
L 22.015625 12.40625 
L 22.015625 4 
L 14.015625 -11.625 
L 7.71875 -11.625 
L 11.71875 4 
z
" id="BitstreamVeraSans-Roman-2c"/>
     <path d="M 9.421875 75.984375 
L 18.40625 75.984375 
L 18.40625 0 
L 9.421875 0 
z
" id="BitstreamVeraSans-Roman-6c"/>
     <path d="M 8.015625 75.875 
L 15.828125 75.875 
Q 23.140625 64.359375 26.78125 53.3125 
Q 30.421875 42.28125 30.421875 31.390625 
Q 30.421875 20.453125 26.78125 9.375 
Q 23.140625 -1.703125 15.828125 -13.1875 
L 8.015625 -13.1875 
Q 14.5 -2 17.703125 9.0625 
Q 20.90625 20.125 20.90625 31.390625 
Q 20.90625 42.671875 17.703125 53.65625 
Q 14.5 64.65625 8.015625 75.875 
" id="BitstreamVeraSans-Roman-29"/>
     <path d="M 19.1875 8.296875 
L 53.609375 8.296875 
L 53.609375 0 
L 7.328125 0 
L 7.328125 8.296875 
Q 12.9375 14.109375 22.625 23.890625 
Q 32.328125 33.6875 34.8125 36.53125 
Q 39.546875 41.84375 41.421875 45.53125 
Q 43.3125 49.21875 43.3125 52.78125 
Q 43.3125 58.59375 39.234375 62.25 
Q 35.15625 65.921875 28.609375 65.921875 
Q 23.96875 65.921875 18.8125 64.3125 
Q 13.671875 62.703125 7.8125 59.421875 
L 7.8125 69.390625 
Q 13.765625 71.78125 18.9375 73 
Q 24.125 74.21875 28.421875 74.21875 
Q 39.75 74.21875 46.484375 68.546875 
Q 53.21875 62.890625 53.21875 53.421875 
Q 53.21875 48.921875 51.53125 44.890625 
Q 49.859375 40.875 45.40625 35.40625 
Q 44.1875 33.984375 37.640625 27.21875 
Q 31.109375 20.453125 19.1875 8.296875 
" id="BitstreamVeraSans-Roman-32"/>
     <path d="M 48.6875 27.296875 
Q 48.6875 37.203125 44.609375 42.84375 
Q 40.53125 48.484375 33.40625 48.484375 
Q 26.265625 48.484375 22.1875 42.84375 
Q 18.109375 37.203125 18.109375 27.296875 
Q 18.109375 17.390625 22.1875 11.75 
Q 26.265625 6.109375 33.40625 6.109375 
Q 40.53125 6.109375 44.609375 11.75 
Q 48.6875 17.390625 48.6875 27.296875 
M 18.109375 46.390625 
Q 20.953125 51.265625 25.265625 53.625 
Q 29.59375 56 35.59375 56 
Q 45.5625 56 51.78125 48.09375 
Q 58.015625 40.1875 58.015625 27.296875 
Q 58.015625 14.40625 51.78125 6.484375 
Q 45.5625 -1.421875 35.59375 -1.421875 
Q 29.59375 -1.421875 25.265625 0.953125 
Q 20.953125 3.328125 18.109375 8.203125 
L 18.109375 0 
L 9.078125 0 
L 9.078125 75.984375 
L 18.109375 75.984375 
z
" id="BitstreamVeraSans-Roman-62"/>
     <path d="M 18.3125 70.21875 
L 18.3125 54.6875 
L 36.8125 54.6875 
L 36.8125 47.703125 
L 18.3125 47.703125 
L 18.3125 18.015625 
Q 18.3125 11.328125 20.140625 9.421875 
Q 21.96875 7.515625 27.59375 7.515625 
L 36.8125 7.515625 
L 36.8125 0 
L 27.59375 0 
Q 17.1875 0 13.234375 3.875 
Q 9.28125 7.765625 9.28125 18.015625 
L 9.28125 47.703125 
L 2.6875 47.703125 
L 2.6875 54.6875 
L 9.28125 54.6875 
L 9.28125 70.21875 
z
" id="BitstreamVeraSans-Roman-74"/>
     <path d="M 18.109375 8.203125 
L 18.109375 -20.796875 
L 9.078125 -20.796875 
L 9.078125 54.6875 
L 18.109375 54.6875 
L 18.109375 46.390625 
Q 20.953125 51.265625 25.265625 53.625 
Q 29.59375 56 35.59375 56 
Q 45.5625 56 51.78125 48.09375 
Q 58.015625 40.1875 58.015625 27.296875 
Q 58.015625 14.40625 51.78125 6.484375 
Q 45.5625 -1.421875 35.59375 -1.421875 
Q 29.59375 -1.421875 25.265625 0.953125 
Q 20.953125 3.328125 18.109375 8.203125 
M 48.6875 27.296875 
Q 48.6875 37.203125 44.609375 42.84375 
Q 40.53125 48.484375 33.40625 48.484375 
Q 26.265625 48.484375 22.1875 42.84375 
Q 18.109375 37.203125 18.109375 27.296875 
Q 18.109375 17.390625 22.1875 11.75 
Q 26.265625 6.109375 33.40625 6.109375 
Q 40.53125 6.109375 44.609375 11.75 
Q 48.6875 17.390625 48.6875 27.296875 
" id="BitstreamVeraSans-Roman-70"/>
    </defs>
    <g transform="translate(101.8153125 23.8)scale(0.12 -0.12)">
     <use xlink:href="#BitstreamVeraSans-Roman-73"/>
     <use x="52.099609375" xlink:href="#BitstreamVeraSans-Roman-75"/>
     <use x="115.478515625" xlink:href="#BitstreamVeraSans-Roman-62"/>
     <use x="178.955078125" xlink:href="#BitstreamVeraSans-Roman-70"/>
     <use x="242.431640625" xlink:href="#BitstreamVeraSans-Roman-6c"/>
     <use x="270.21484375" xlink:href="#BitstreamVeraSans-Roman-6f"/>
     <use x="331.396484375" xlink:href="#BitstreamVeraSans-Roman-74"/>
     <use x="370.60546875" xlink:href="#BitstreamVeraSans-Roman-28"/>
     <use x="409.619140625" xlink:href="#BitstreamVeraSans-Roman-32"/>
     <use x="473.2421875" xlink:href="#BitstreamVeraSans-Roman-2c"/>
     <use x="505.029296875" xlink:href="#BitstreamVeraSans-Roman-33"/>
     <use x="568.65234375" xlink:href="#BitstreamVeraSans-Roman-2c"/>
     <use x="600.439453125" xlink:href="#BitstreamVeraSans-Roman-31"/>
     <use x="664.0625" xlink:href="#BitstreamVeraSans-Roman-29"/>
    </g>
   </g>
  </g>
  <g id="axes_2">
   <g id="patch_7">
    <path d="M 223.2 118.08 
L 367.2 118.08 
L 367.2 28.8 
L 223.2 28.8 
z
" style="fill:#ffffff;"/>
   </g>
   <g id="line2d_2">
    <path clip-path="url(#p2b06f40dfd)" d="M 295.2 28.8 
L 302.009958 28.88898 
L 308.758862 29.155564 
L 315.386205 29.59869 
L 321.83257 30.216591 
L 328.040163 31.006805 
L 333.953328 31.966181 
L 339.519054 33.090894 
L 344.68744 34.376463 
L 349.412149 35.817761 
L 353.650823 37.409043 
L 357.36546 39.143967 
L 360.522757 41.015615 
L 363.094407 43.016528 
L 365.057354 45.138729 
L 366.393999 47.373758 
L 367.092359 49.712706 
L 367.146173 52.146249 
L 366.554958 54.664686 
L 365.324015 57.257978 
L 363.464379 59.915787 
L 360.992724 62.627519 
L 357.931209 65.382364 
L 354.30728 68.16934 
L 350.15343 70.977338 
L 345.506898 73.795163 
L 340.409342 76.611584 
L 334.906466 79.415373 
L 329.047603 82.195354 
L 322.885283 84.940444 
L 316.474751 87.639701 
L 309.873482 90.282365 
L 296.336645 95.356044 
L 282.759137 100.08066 
L 269.62678 104.380954 
L 251.78228 109.888064 
L 233.615781 115.174887 
L 223.217944 118.08 
L 231.918677 115.654635 
L 231.918677 115.654635 
L 249.111636 110.683805 
L 266.468905 105.381535 
L 279.415555 101.198314 
L 292.926994 96.572967 
L 306.519764 91.579173 
L 313.194294 88.968771 
L 319.707497 86.296479 
L 326.00098 83.572948 
L 332.018319 80.809035 
L 337.705566 78.015758 
L 343.011732 75.204252 
L 347.889245 72.385724 
L 352.294375 69.57141 
L 356.18763 66.772528 
L 359.534105 64.000236 
L 362.303796 61.265584 
L 364.471872 58.579475 
L 366.018896 55.952615 
L 366.930998 53.395476 
L 367.2 50.918251 
L 366.823491 48.530816 
L 365.804846 46.242687 
L 364.153198 44.062985 
L 361.883354 42.000401 
L 359.015666 40.063154 
L 355.575842 38.258969 
L 351.594722 36.595037 
L 347.108 35.07799 
L 342.155899 33.713877 
L 336.782818 32.508135 
L 331.03693 31.465571 
L 324.969747 30.59034 
L 318.635666 29.885931 
L 312.091474 29.355153 
L 305.395843 29.000121 
L 298.608801 28.82225 
L 291.791199 28.82225 
L 285.004157 29.000121 
L 278.308526 29.355153 
L 271.764334 29.885931 
L 265.430253 30.59034 
L 259.36307 31.465571 
L 253.617182 32.508135 
L 248.244101 33.713877 
L 243.292 35.07799 
L 238.805278 36.595037 
L 234.824158 38.258969 
L 231.384334 40.063154 
L 228.516646 42.000401 
L 226.246802 44.062985 
L 224.595154 46.242687 
L 223.576509 48.530816 
L 223.2 50.918251 
L 223.469002 53.395476 
L 224.381104 55.952615 
L 225.928128 58.579475 
L 228.096204 61.265584 
L 230.865895 64.000236 
L 234.21237 66.772528 
L 238.105625 69.57141 
L 242.510755 72.385724 
L 247.388268 75.204252 
L 252.694434 78.015758 
L 258.381681 80.809035 
L 264.39902 83.572948 
L 270.692503 86.296479 
L 277.205706 88.968771 
L 290.656253 94.117277 
L 304.269381 98.936453 
L 317.557995 103.349533 
L 330.046609 107.28622 
L 346.313818 112.163161 
L 365.5732 117.635711 
L 367.182056 118.08 
L 366.215297 117.81325 
L 366.215297 117.81325 
L 348.657358 112.845303 
L 332.990533 108.188425 
L 320.77322 104.380954 
L 307.640863 100.08066 
L 294.063355 95.356044 
L 280.526518 90.282365 
L 273.925249 87.639701 
L 267.514717 84.940444 
L 261.352397 82.195354 
L 255.493534 79.415373 
L 249.990658 76.611584 
L 244.893102 73.795163 
L 240.24657 70.977338 
L 236.09272 68.16934 
L 232.468791 65.382364 
L 229.407276 62.627519 
L 226.935621 59.915787 
L 225.075985 57.257978 
L 223.845042 54.664686 
L 223.253827 52.146249 
L 223.307641 49.712706 
L 224.006001 47.373758 
L 225.342646 45.138729 
L 227.305593 43.016528 
L 229.877243 41.015615 
L 233.03454 39.143967 
L 236.749177 37.409043 
L 240.987851 35.817761 
L 245.71256 34.376463 
L 250.880946 33.090894 
L 256.446672 31.966181 
L 262.359837 31.006805 
L 268.56743 30.216591 
L 275.013795 29.59869 
L 281.641138 29.155564 
L 288.390042 28.88898 
L 295.2 28.8 
L 295.2 28.8 
" style="fill:none;stroke:#0000ff;stroke-linecap:square;"/>
   </g>
   <g id="patch_8">
    <path d="M 367.2 118.08 
L 367.2 28.8 
" style="fill:none;stroke:#000000;stroke-linecap:square;stroke-linejoin:miter;"/>
   </g>
   <g id="patch_9">
    <path d="M 223.2 118.08 
L 223.2 28.8 
" style="fill:none;stroke:#000000;stroke-linecap:square;stroke-linejoin:miter;"/>
   </g>
   <g id="patch_10">
    <path d="M 223.2 118.08 
L 367.2 118.08 
" style="fill:none;stroke:#000000;stroke-linecap:square;stroke-linejoin:miter;"/>
   </g>
   <g id="patch_11">
    <path d="M 223.2 28.8 
L 367.2 28.8 
" style="fill:none;stroke:#000000;stroke-linecap:square;stroke-linejoin:miter;"/>
   </g>
   <g id="matplotlib.axis_3"/>
   <g id="matplotlib.axis_4"/>
   <g id="text_2">
    <!-- subplot(2,3,2) -->
    <g transform="translate(253.0153125 23.8)scale(0.12 -0.12)">
     <use xlink:href="#BitstreamVeraSans-Roman-73"/>
     <use x="52.099609375" xlink:href="#BitstreamVeraSans-Roman-75"/>
     <use x="115.478515625" xlink:href="#BitstreamVeraSans-Roman-62"/>
     <use x="178.955078125" xlink:href="#BitstreamVeraSans-Roman-70"/>
     <use x="242.431640625" xlink:href="#BitstreamVeraSans-Roman-6c"/>
     <use x="270.21484375" xlink:href="#BitstreamVeraSans-Roman-6f"/>
     <use x="331.396484375" xlink:href="#BitstreamVeraSans-Roman-74"/>
     <use x="370.60546875" xlink:href="#BitstreamVeraSans-Roman-28"/>
     <use x="409.619140625" xlink:href="#BitstreamVeraSans-Roman-32"/>
     <use x="473.2421875" xlink:href="#BitstreamVeraSans-Roman-2c"/>
     <use x="505.029296875" xlink:href="#BitstreamVeraSans-Roman-33"/>
     <use x="568.65234375" xlink:href="#BitstreamVeraSans-Roman-2c"/>
     <use x="600.439453125" xlink:href="#BitstreamVeraSans-Roman-32"/>
     <use x="664.0625" xlink:href="#BitstreamVeraSans-Roman-29"/>
    </g>
   </g>
  </g>
  <g id="axes_3">
   <g id="patch_12">
    <path d="M 72 252 
L 216 252 
L 216 162.72 
L 72 162.72 
z
" style="fill:#ffffff;"/>
   </g>
   <g id="line2d_3">
    <path clip-path="url(#p46c7276e25)" d="M 144 162.72 
L 150.809958 163.075564 
L 157.558862 164.136591 
L 164.186205 165.886181 
L 170.63257 168.296463 
L 176.840163 171.329043 
L 182.753328 174.935615 
L 188.319054 179.058729 
L 193.48744 183.632706 
L 198.212149 188.584686 
L 202.450823 193.835787 
L 206.16546 199.302364 
L 209.322757 204.897338 
L 211.894407 210.531584 
L 213.857354 216.115354 
L 215.193999 221.559701 
L 215.892359 226.777902 
L 215.946173 231.686833 
L 215.354958 236.2083 
L 214.124015 240.270279 
L 212.264379 243.808064 
L 209.792724 246.765303 
L 206.731209 249.094887 
L 203.10728 250.75971 
L 198.95343 251.73325 
L 194.306898 252 
L 189.209342 251.555711 
L 183.706466 250.407461 
L 177.847603 248.57354 
L 171.685283 246.083161 
L 165.274751 242.975995 
L 158.673482 239.301535 
L 151.940659 235.118314 
L 145.136645 230.492967 
L 138.32244 225.499173 
L 131.559137 220.216479 
L 124.907371 214.729035 
L 118.42678 209.124252 
L 112.175463 203.49141 
L 106.209467 197.920236 
L 95.344351 187.315476 
L 86.220201 177.982985 
L 76.492487 167.633877 
L 72.017944 162.74225 
L 75.382661 166.428135 
L 75.382661 166.428135 
L 84.250994 175.920401 
L 92.886182 184.838251 
L 103.350292 195.185584 
L 109.153391 200.692528 
L 115.268905 206.305724 
L 121.642005 211.935758 
L 128.215555 217.492948 
L 134.930619 222.888771 
L 141.726994 228.037277 
L 148.543747 232.856453 
L 155.319764 237.269533 
L 161.994294 241.20622 
L 168.507497 244.603805 
L 174.80098 247.408167 
L 180.818319 249.574635 
L 186.505566 251.068699 
L 191.811732 251.866558 
L 196.689245 251.955505 
L 201.094375 251.334121 
L 204.98763 250.012305 
L 208.334105 248.011113 
L 211.103796 245.362423 
L 213.271872 242.108425 
L 214.818896 238.300954 
L 215.730998 234.00066 
L 216 229.276044 
L 215.623491 224.202365 
L 214.604846 218.860444 
L 212.953198 213.335373 
L 210.683354 207.715163 
L 207.815666 202.08934 
L 204.375842 196.547519 
L 200.394722 191.177978 
L 195.908 186.066249 
L 190.955899 181.293758 
L 185.582818 176.936528 
L 179.83693 173.063967 
L 173.769747 169.737761 
L 167.435666 167.010894 
L 160.891474 164.926805 
L 154.195843 163.51869 
L 147.408801 162.80898 
L 140.591199 162.80898 
L 133.804157 163.51869 
L 127.108526 164.926805 
L 120.564334 167.010894 
L 114.230253 169.737761 
L 108.16307 173.063967 
L 102.417182 176.936528 
L 97.044101 181.293758 
L 92.092 186.066249 
L 87.605278 191.177978 
L 83.624158 196.547519 
L 80.184334 202.08934 
L 77.316646 207.715163 
L 75.046802 213.335373 
L 73.395154 218.860444 
L 72.376509 224.202365 
L 72 229.276044 
L 72.269002 234.00066 
L 73.181104 238.300954 
L 74.728128 242.108425 
L 76.896204 245.362423 
L 79.665895 248.011113 
L 83.01237 250.012305 
L 86.905625 251.334121 
L 91.310755 251.955505 
L 96.188268 251.866558 
L 101.494434 251.068699 
L 107.181681 249.574635 
L 113.19902 247.408167 
L 119.492503 244.603805 
L 126.005706 241.20622 
L 132.680236 237.269533 
L 139.456253 232.856453 
L 146.273006 228.037277 
L 153.069381 222.888771 
L 159.784445 217.492948 
L 166.357995 211.935758 
L 172.731095 206.305724 
L 178.846609 200.692528 
L 190.088364 189.872615 
L 199.681014 180.162687 
L 210.246294 168.99799 
L 215.982056 162.74225 
L 211.507513 167.633877 
L 211.507513 167.633877 
L 201.779799 177.982985 
L 192.655649 187.315476 
L 181.790533 197.920236 
L 175.824537 203.49141 
L 169.57322 209.124252 
L 163.092629 214.729035 
L 156.440863 220.216479 
L 149.67756 225.499173 
L 142.863355 230.492967 
L 136.059341 235.118314 
L 129.326518 239.301535 
L 122.725249 242.975995 
L 116.314717 246.083161 
L 110.152397 248.57354 
L 104.293534 250.407461 
L 98.790658 251.555711 
L 93.693102 252 
L 89.04657 251.73325 
L 84.89272 250.75971 
L 81.268791 249.094887 
L 78.207276 246.765303 
L 75.735621 243.808064 
L 73.875985 240.270279 
L 72.645042 236.2083 
L 72.053827 231.686833 
L 72.107641 226.777902 
L 72.806001 221.559701 
L 74.142646 216.115354 
L 76.105593 210.531584 
L 78.677243 204.897338 
L 81.83454 199.302364 
L 85.549177 193.835787 
L 89.787851 188.584686 
L 94.51256 183.632706 
L 99.680946 179.058729 
L 105.246672 174.935615 
L 111.159837 171.329043 
L 117.36743 168.296463 
L 123.813795 165.886181 
L 130.441138 164.136591 
L 137.190042 163.075564 
L 144 162.72 
L 144 162.72 
" style="fill:none;stroke:#0000ff;stroke-linecap:square;"/>
   </g>
   <g id="patch_13">
    <path d="M 216 252 
L 216 162.72 
" style="fill:none;stroke:#000000;stroke-linecap:square;stroke-linejoin:miter;"/>
   </g>
   <g id="patch_14">
    <path d="M 72 252 
L 72 162.72 
" style="fill:none;stroke:#000000;stroke-linecap:square;stroke-linejoin:miter;"/>
   </g>
   <g id="patch_15">
    <path d="M 72 252 
L 216 252 
" style="fill:none;stroke:#000000;stroke-linecap:square;stroke-linejoin:miter;"/>
   </g>
   <g id="patch_16">
    <path d="M 72 162.72 
L 216 162.72 
" style="fill:none;stroke:#000000;stroke-linecap:square;stroke-linejoin:miter;"/>
   </g>
   <g id="matplotlib.axis_5"/>
   <g id="matplotlib.axis_6"/>
   <g id="text_3">
    <!-- subplot(2,3,4) -->
    <defs>
     <path d="M 37.796875 64.3125 
L 12.890625 25.390625 
L 37.796875 25.390625 
z
M 35.203125 72.90625 
L 47.609375 72.90625 
L 47.609375 25.390625 
L 58.015625 25.390625 
L 58.015625 17.1875 
L 47.609375 17.1875 
L 47.609375 0 
L 37.796875 0 
L 37.796875 17.1875 
L 4.890625 17.1875 
L 4.890625 26.703125 
z
" id="BitstreamVeraSans-Roman-34"/>
    </defs>
    <g transform="translate(101.8153125 157.72)scale(0.12 -0.12)">
     <use xlink:href="#BitstreamVeraSans-Roman-73"/>
     <use x="52.099609375" xlink:href="#BitstreamVeraSans-Roman-75"/>
     <use x="115.478515625" xlink:href="#BitstreamVeraSans-Roman-62"/>
     <use x="178.955078125" xlink:href="#BitstreamVeraSans-Roman-70"/>
     <use x="242.431640625" xlink:href="#BitstreamVeraSans-Roman-6c"/>
     <use x="270.21484375" xlink:href="#BitstreamVeraSans-Roman-6f"/>
     <use x="331.396484375" xlink:href="#BitstreamVeraSans-Roman-74"/>
     <use x="370.60546875" xlink:href="#BitstreamVeraSans-Roman-28"/>
     <use x="409.619140625" xlink:href="#BitstreamVeraSans-Roman-32"/>
     <use x="473.2421875" xlink:href="#BitstreamVeraSans-Roman-2c"/>
     <use x="505.029296875" xlink:href="#BitstreamVeraSans-Roman-33"/>
     <use x="568.65234375" xlink:href="#BitstreamVeraSans-Roman-2c"/>
     <use x="600.439453125" xlink:href="#BitstreamVeraSans-Roman-34"/>
     <use x="664.0625" xlink:href="#BitstreamVeraSans-Roman-29"/>
    </g>
   </g>
  </g>
  <g id="axes_4">
   <g id="patch_17">
    <path d="M 223.2 252 
L 367.2 252 
L 367.2 162.72 
L 223.2 162.72 
z
" style="fill:#ffffff;"/>
   </g>
   <g id="line2d_4">
    <path clip-path="url(#p0162685616)" d="M 295.2 162.72 
L 302.009958 163.275153 
L 308.758862 164.926805 
L 315.386205 167.633877 
L 321.83257 171.329043 
L 328.040163 175.920401 
L 333.953328 181.293758 
L 339.519054 187.315476 
L 344.68744 193.835787 
L 349.412149 200.692528 
L 353.650823 207.715163 
L 357.36546 214.729035 
L 360.522757 221.559701 
L 363.094407 228.037277 
L 365.057354 234.00066 
L 366.393999 239.301535 
L 367.092359 243.808064 
L 367.146173 247.408167 
L 366.554958 250.012305 
L 365.324015 251.555711 
L 363.464379 252 
L 360.992724 251.334121 
L 357.931209 249.574635 
L 354.30728 246.765303 
L 350.15343 242.975995 
L 345.506898 238.300954 
L 340.409342 232.856453 
L 316.474751 206.305724 
L 309.873482 199.302364 
L 303.140659 192.499475 
L 296.336645 186.066249 
L 289.52244 180.162687 
L 282.759137 174.935615 
L 276.107371 170.515037 
L 269.62678 167.010894 
L 263.375463 164.51034 
L 257.409467 163.075564 
L 251.78228 162.74225 
L 246.544351 163.51869 
L 241.742642 165.385571 
L 237.420201 168.296463 
L 233.615781 172.178969 
L 230.36349 176.936528 
L 227.692487 182.450816 
L 225.626718 188.584686 
L 224.184703 195.185584 
L 223.379372 202.08934 
L 223.217944 209.124252 
L 223.701866 216.115354 
L 224.8268 222.888771 
L 226.582661 229.276044 
L 228.953706 235.118314 
L 231.918677 240.270279 
L 235.450994 244.603805 
L 239.518986 248.011113 
L 244.086182 250.407461 
L 249.111636 251.73325 
L 254.550292 251.955505 
L 260.353391 251.068699 
L 266.468905 249.094887 
L 272.842005 246.083161 
L 279.415555 242.108425 
L 286.130619 237.269533 
L 292.926994 231.686833 
L 299.743747 225.499173 
L 306.519764 218.860444 
L 313.194294 211.935758 
L 319.707497 204.897338 
L 343.011732 179.058729 
L 347.889245 173.983154 
L 352.294375 169.737761 
L 356.18763 166.428135 
L 359.534105 164.136591 
L 362.303796 162.920121 
L 364.471872 162.80898 
L 366.018896 163.805931 
L 366.930998 165.886181 
L 367.2 168.99799 
L 366.823491 173.063967 
L 365.804846 177.982985 
L 364.153198 183.632706 
L 361.883354 189.872615 
L 359.015666 196.547519 
L 355.575842 203.49141 
L 351.594722 210.531584 
L 347.108 217.492948 
L 342.155899 224.202365 
L 336.782818 230.492967 
L 331.03693 236.2083 
L 324.969747 241.20622 
L 318.635666 245.362423 
L 312.091474 248.57354 
L 305.395843 250.75971 
L 298.608801 251.866558 
L 291.791199 251.866558 
L 285.004157 250.75971 
L 278.308526 248.57354 
L 271.764334 245.362423 
L 265.430253 241.20622 
L 259.36307 236.2083 
L 253.617182 230.492967 
L 248.244101 224.202365 
L 243.292 217.492948 
L 238.805278 210.531584 
L 234.824158 203.49141 
L 231.384334 196.547519 
L 228.516646 189.872615 
L 226.246802 183.632706 
L 224.595154 177.982985 
L 223.576509 173.063967 
L 223.2 168.99799 
L 223.469002 165.886181 
L 224.381104 163.805931 
L 225.928128 162.80898 
L 228.096204 162.920121 
L 230.865895 164.136591 
L 234.21237 166.428135 
L 238.105625 169.737761 
L 242.510755 173.983154 
L 247.388268 179.058729 
L 258.381681 191.177978 
L 270.692503 204.897338 
L 277.205706 211.935758 
L 283.880236 218.860444 
L 290.656253 225.499173 
L 297.473006 231.686833 
L 304.269381 237.269533 
L 310.984445 242.108425 
L 317.557995 246.083161 
L 323.931095 249.094887 
L 330.046609 251.068699 
L 335.849708 251.955505 
L 341.288364 251.73325 
L 346.313818 250.407461 
L 350.881014 248.011113 
L 354.949006 244.603805 
L 358.481323 240.270279 
L 361.446294 235.118314 
L 363.817339 229.276044 
L 365.5732 222.888771 
L 366.698134 216.115354 
L 367.182056 209.124252 
L 367.020628 202.08934 
L 366.215297 195.185584 
L 364.773282 188.584686 
L 362.707513 182.450816 
L 360.03651 176.936528 
L 356.784219 172.178969 
L 352.979799 168.296463 
L 348.657358 165.385571 
L 343.855649 163.51869 
L 338.61772 162.74225 
L 332.990533 163.075564 
L 327.024537 164.51034 
L 320.77322 167.010894 
L 314.292629 170.515037 
L 307.640863 174.935615 
L 300.87756 180.162687 
L 294.063355 186.066249 
L 287.259341 192.499475 
L 280.526518 199.302364 
L 273.925249 206.305724 
L 261.352397 220.216479 
L 249.990658 232.856453 
L 244.893102 238.300954 
L 240.24657 242.975995 
L 236.09272 246.765303 
L 232.468791 249.574635 
L 229.407276 251.334121 
L 226.935621 252 
L 225.075985 251.555711 
L 223.845042 250.012305 
L 223.253827 247.408167 
L 223.307641 243.808064 
L 224.006001 239.301535 
L 225.342646 234.00066 
L 227.305593 228.037277 
L 229.877243 221.559701 
L 233.03454 214.729035 
L 236.749177 207.715163 
L 240.987851 200.692528 
L 245.71256 193.835787 
L 250.880946 187.315476 
L 256.446672 181.293758 
L 262.359837 175.920401 
L 268.56743 171.329043 
L 275.013795 167.633877 
L 281.641138 164.926805 
L 288.390042 163.275153 
L 295.2 162.72 
L 295.2 162.72 
" style="fill:none;stroke:#0000ff;stroke-linecap:square;"/>
   </g>
   <g id="patch_18">
    <path d="M 367.2 252 
L 367.2 162.72 
" style="fill:none;stroke:#000000;stroke-linecap:square;stroke-linejoin:miter;"/>
   </g>
   <g id="patch_19">
    <path d="M 223.2 252 
L 223.2 162.72 
" style="fill:none;stroke:#000000;stroke-linecap:square;stroke-linejoin:miter;"/>
   </g>
   <g id="patch_20">
    <path d="M 223.2 252 
L 367.2 252 
" style="fill:none;stroke:#000000;stroke-linecap:square;stroke-linejoin:miter;"/>
   </g>
   <g id="patch_21">
    <path d="M 223.2 162.72 
L 367.2 162.72 
" style="fill:none;stroke:#000000;stroke-linecap:square;stroke-linejoin:miter;"/>
   </g>
   <g id="matplotlib.axis_7"/>
   <g id="matplotlib.axis_8"/>
   <g id="text_4">
    <!-- subplot(2,3,5) -->
    <defs>
     <path d="M 10.796875 72.90625 
L 49.515625 72.90625 
L 49.515625 64.59375 
L 19.828125 64.59375 
L 19.828125 46.734375 
Q 21.96875 47.46875 24.109375 47.828125 
Q 26.265625 48.1875 28.421875 48.1875 
Q 40.625 48.1875 47.75 41.5 
Q 54.890625 34.8125 54.890625 23.390625 
Q 54.890625 11.625 47.5625 5.09375 
Q 40.234375 -1.421875 26.90625 -1.421875 
Q 22.3125 -1.421875 17.546875 -0.640625 
Q 12.796875 0.140625 7.71875 1.703125 
L 7.71875 11.625 
Q 12.109375 9.234375 16.796875 8.0625 
Q 21.484375 6.890625 26.703125 6.890625 
Q 35.15625 6.890625 40.078125 11.328125 
Q 45.015625 15.765625 45.015625 23.390625 
Q 45.015625 31 40.078125 35.4375 
Q 35.15625 39.890625 26.703125 39.890625 
Q 22.75 39.890625 18.8125 39.015625 
Q 14.890625 38.140625 10.796875 36.28125 
z
" id="BitstreamVeraSans-Roman-35"/>
    </defs>
    <g transform="translate(253.0153125 157.72)scale(0.12 -0.12)">
     <use xlink:href="#BitstreamVeraSans-Roman-73"/>
     <use x="52.099609375" xlink:href="#BitstreamVeraSans-Roman-75"/>
     <use x="115.478515625" xlink:href="#BitstreamVeraSans-Roman-62"/>
     <use x="178.955078125" xlink:href="#BitstreamVeraSans-Roman-70"/>
     <use x="242.431640625" xlink:href="#BitstreamVeraSans-Roman-6c"/>
     <use x="270.21484375" xlink:href="#BitstreamVeraSans-Roman-6f"/>
     <use x="331.396484375" xlink:href="#BitstreamVeraSans-Roman-74"/>
     <use x="370.60546875" xlink:href="#BitstreamVeraSans-Roman-28"/>
     <use x="409.619140625" xlink:href="#BitstreamVeraSans-Roman-32"/>
     <use x="473.2421875" xlink:href="#BitstreamVeraSans-Roman-2c"/>
     <use x="505.029296875" xlink:href="#BitstreamVeraSans-Roman-33"/>
     <use x="568.65234375" xlink:href="#BitstreamVeraSans-Roman-2c"/>
     <use x="600.439453125" xlink:href="#BitstreamVeraSans-Roman-35"/>
     <use x="664.0625" xlink:href="#BitstreamVeraSans-Roman-29"/>
    </g>
   </g>
  </g>
  <g id="axes_5">
   <g id="patch_22">
    <path d="M 374.4 252 
L 518.4 252 
L 518.4 28.8 
L 374.4 28.8 
z
" style="fill:#ffffff;"/>
   </g>
   <g id="line2d_5">
    <path clip-path="url(#p876d3dd147)" d="M 446.4 252 
L 468.757995 250.878392 
L 488.905566 249.756784 
L 504.850823 248.635176 
L 515.017339 247.513568 
L 518.4 246.39196 
L 514.664379 245.270352 
L 504.179799 244.148744 
L 487.982818 243.027136 
L 467.674751 241.905528 
L 422.964334 239.662312 
L 402.98228 238.540704 
L 387.29272 237.419095 
L 377.446802 236.297487 
L 374.417944 235.175879 
L 378.505593 234.054271 
L 389.305625 232.932663 
L 405.750292 231.811055 
L 448.673006 229.567839 
L 470.907497 228.446231 
L 490.719054 227.324623 
L 506.149006 226.203015 
L 515.671872 225.081407 
L 518.346173 223.959799 
L 513.907513 222.838191 
L 502.794722 221.716583 
L 486.106466 220.594975 
L 442.991199 218.351759 
L 420.82678 217.230151 
L 401.190658 216.108543 
L 386.024158 214.986935 
L 376.826718 213.865327 
L 374.507641 212.743719 
L 379.296204 211.622111 
L 390.718986 210.500503 
L 407.646672 209.378894 
L 450.943747 207.135678 
L 473.03257 206.01407 
L 492.488364 204.892462 
L 507.38763 203.770854 
L 516.257354 202.649246 
L 518.220628 201.527638 
L 513.083354 200.40603 
L 501.35343 199.284422 
L 484.190533 198.162814 
L 440.72244 195.919598 
L 418.714717 194.79799 
L 399.444101 193.676382 
L 384.815781 192.554774 
L 376.275985 191.433166 
L 374.669002 190.311558 
L 380.153706 189.18995 
L 392.187851 188.068342 
L 409.581681 186.946734 
L 453.209958 184.703518 
L 475.131095 183.58191 
L 494.211732 182.460302 
L 508.56546 181.338693 
L 516.7732 180.217085 
L 518.023491 179.095477 
L 512.192724 177.973869 
L 499.857358 176.852261 
L 482.23693 175.730653 
L 438.459341 173.487437 
L 416.630253 172.365829 
L 397.744351 171.244221 
L 383.668791 170.122613 
L 375.795154 169.001005 
L 374.901866 167.879397 
L 381.077243 166.757789 
L 393.710755 165.636181 
L 411.553391 164.514573 
L 495.88744 160.028141 
L 509.681323 158.906533 
L 517.218896 157.784925 
L 517.754958 156.663317 
L 511.23651 155.541709 
L 498.308 154.420101 
L 480.247603 153.298492 
L 396.093102 148.81206 
L 382.584334 147.690452 
L 375.384703 146.568844 
L 375.206001 145.447236 
L 382.065895 144.325628 
L 395.286182 143.20402 
L 413.559837 142.082412 
L 497.513818 137.59598 
L 510.734105 136.474372 
L 517.593999 135.352764 
L 517.415297 134.231156 
L 510.215666 133.109548 
L 496.706898 131.98794 
L 478.224537 130.866332 
L 412.552397 127.501508 
L 394.492 126.379899 
L 381.56349 125.258291 
L 375.045042 124.136683 
L 375.581104 123.015075 
L 383.118677 121.893467 
L 396.91256 120.771859 
L 415.59902 119.650251 
L 481.246609 116.285427 
L 499.089245 115.163819 
L 511.722757 114.042211 
L 517.898134 112.920603 
L 517.004846 111.798995 
L 509.131209 110.677387 
L 495.055649 109.555779 
L 476.169747 108.434171 
L 410.56307 105.069347 
L 392.942642 103.947739 
L 380.607276 102.826131 
L 374.776509 101.704523 
L 376.0268 100.582915 
L 384.23454 99.461307 
L 398.588268 98.339698 
L 417.668905 97.21809 
L 483.218319 93.853266 
L 500.612149 92.731658 
L 512.646294 91.61005 
L 518.130998 90.488442 
L 516.524015 89.366834 
L 507.984219 88.245226 
L 493.355899 87.123618 
L 474.085283 86.00201 
L 408.609467 82.637186 
L 391.44657 81.515578 
L 379.716646 80.39397 
L 374.579372 79.272362 
L 376.542646 78.150754 
L 385.41237 77.029146 
L 400.311636 75.907538 
L 419.76743 74.78593 
L 485.153328 71.421106 
L 502.081014 70.299497 
L 513.503796 69.177889 
L 518.292359 68.056281 
L 515.973282 66.934673 
L 506.775842 65.813065 
L 491.609342 64.691457 
L 471.97322 63.569849 
L 406.693534 60.205025 
L 390.005278 59.083417 
L 378.892487 57.961809 
L 374.453827 56.840201 
L 377.128128 55.718593 
L 386.650994 54.596985 
L 402.080946 53.475377 
L 421.892503 52.353769 
L 487.049708 48.988945 
L 503.494375 47.867337 
L 514.294407 46.745729 
L 518.382056 45.624121 
L 515.353198 44.502513 
L 505.50728 43.380905 
L 489.81772 42.259296 
L 469.835666 41.137688 
L 404.817182 37.772864 
L 388.620201 36.651256 
L 378.135621 35.529648 
L 374.4 34.40804 
L 377.782661 33.286432 
L 387.949177 32.164824 
L 403.894434 31.043216 
L 424.042005 29.921608 
L 446.4 28.8 
L 446.4 28.8 
" style="fill:none;stroke:#0000ff;stroke-linecap:square;"/>
   </g>
   <g id="patch_23">
    <path d="M 518.4 252 
L 518.4 28.8 
" style="fill:none;stroke:#000000;stroke-linecap:square;stroke-linejoin:miter;"/>
   </g>
   <g id="patch_24">
    <path d="M 374.4 252 
L 374.4 28.8 
" style="fill:none;stroke:#000000;stroke-linecap:square;stroke-linejoin:miter;"/>
   </g>
   <g id="patch_25">
    <path d="M 374.4 252 
L 518.4 252 
" style="fill:none;stroke:#000000;stroke-linecap:square;stroke-linejoin:miter;"/>
   </g>
   <g id="patch_26">
    <path d="M 374.4 28.8 
L 518.4 28.8 
" style="fill:none;stroke:#000000;stroke-linecap:square;stroke-linejoin:miter;"/>
   </g>
   <g id="matplotlib.axis_9"/>
   <g id="matplotlib.axis_10"/>
   <g id="text_5">
    <!-- subplot(1,3,3) -->
    <g transform="translate(404.2153125 23.8)scale(0.12 -0.12)">
     <use xlink:href="#BitstreamVeraSans-Roman-73"/>
     <use x="52.099609375" xlink:href="#BitstreamVeraSans-Roman-75"/>
     <use x="115.478515625" xlink:href="#BitstreamVeraSans-Roman-62"/>
     <use x="178.955078125" xlink:href="#BitstreamVeraSans-Roman-70"/>
     <use x="242.431640625" xlink:href="#BitstreamVeraSans-Roman-6c"/>
     <use x="270.21484375" xlink:href="#BitstreamVeraSans-Roman-6f"/>
     <use x="331.396484375" xlink:href="#BitstreamVeraSans-Roman-74"/>
     <use x="370.60546875" xlink:href="#BitstreamVeraSans-Roman-28"/>
     <use x="409.619140625" xlink:href="#BitstreamVeraSans-Roman-31"/>
     <use x="473.2421875" xlink:href="#BitstreamVeraSans-Roman-2c"/>
     <use x="505.029296875" xlink:href="#BitstreamVeraSans-Roman-33"/>
     <use x="568.65234375" xlink:href="#BitstreamVeraSans-Roman-2c"/>
     <use x="600.439453125" xlink:href="#BitstreamVeraSans-Roman-33"/>
     <use x="664.0625" xlink:href="#BitstreamVeraSans-Roman-29"/>
    </g>
   </g>
  </g>
 </g>
 <defs>
  <clipPath id="p46c7276e25">
   <rect height="89.28" width="144.0" x="72.0" y="162.72"/>
  </clipPath>
  <clipPath id="p0162685616">
   <rect height="89.28" width="144.0" x="223.2" y="162.72"/>
  </clipPath>
  <clipPath id="p2b06f40dfd">
   <rect height="89.28" width="144.0" x="223.2" y="28.8"/>
  </clipPath>
  <clipPath id="p876d3dd147">
   <rect height="223.2" width="144.0" x="374.4" y="28.8"/>
  </clipPath>
  <clipPath id="p6fd8cb44a3">
   <rect height="89.28" width="144.0" x="72.0" y="28.8"/>
  </clipPath>
 </defs>
</svg>
