<?xml version="1.0" encoding="utf-8" standalone="no"?>
<!DOCTYPE svg PUBLIC "-//W3C//DTD SVG 1.1//EN"
  "http://www.w3.org/Graphics/SVG/1.1/DTD/svg11.dtd">
<!-- Created with matplotlib (http://matplotlib.org/) -->
<svg height="288pt" version="1.1" viewBox="0 0 576 288" width="576pt" xmlns="http://www.w3.org/2000/svg" xmlns:xlink="http://www.w3.org/1999/xlink">
 <defs>
  <style type="text/css">
*{stroke-linecap:butt;stroke-linejoin:round;stroke-miterlimit:100000;}
  </style>
 </defs>
 <g id="figure_1">
  <g id="patch_1">
   <path d="M 0 288 
L 576 288 
L 576 0 
L 0 0 
z
" style="fill:#ffffff;"/>
  </g>
  <g id="axes_1">
   <g id="patch_2">
    <path d="M 72 121.8 
L 518.4 121.8 
L 518.4 28.8 
L 72 28.8 
z
" style="fill:#ffffff;"/>
   </g>
   <g id="line2d_1">
    <path clip-path="url(#p8977ff8bff)" d="M 72 75.3 
L 80.972864 63.679047 
L 85.459296 58.100334 
L 89.945729 52.7956 
L 94.432161 47.849344 
L 98.918593 43.340357 
L 103.405025 39.340465 
L 105.648241 37.551686 
L 107.891457 35.913382 
L 110.134673 34.432086 
L 112.377889 33.1137 
L 114.621106 31.963482 
L 116.864322 30.986016 
L 119.107538 30.185198 
L 121.350754 29.564221 
L 123.59397 29.12556 
L 125.837186 28.870965 
L 128.080402 28.801449 
L 130.323618 28.917289 
L 132.566834 29.218025 
L 134.81005 29.702458 
L 137.053266 30.368655 
L 139.296482 31.213962 
L 141.539698 32.235009 
L 143.782915 33.427725 
L 146.026131 34.787357 
L 148.269347 36.308484 
L 150.512563 37.985042 
L 154.998995 41.777128 
L 159.485427 46.103209 
L 163.971859 50.894374 
L 168.458291 56.074304 
L 172.944724 61.560485 
L 179.674372 70.171817 
L 193.133668 87.630272 
L 197.620101 93.179521 
L 202.106533 98.443963 
L 206.592965 103.339737 
L 211.079397 107.788859 
L 215.565829 111.720457 
L 217.809045 113.472263 
L 220.052261 115.071903 
L 222.295477 116.513 
L 224.538693 117.789811 
L 226.78191 118.897244 
L 229.025126 119.830886 
L 231.268342 120.587015 
L 233.511558 121.162617 
L 235.754774 121.555397 
L 237.99799 121.763789 
L 240.241206 121.786963 
L 242.484422 121.624826 
L 244.727638 121.278025 
L 246.970854 120.747942 
L 249.21407 120.03669 
L 251.457286 119.147105 
L 253.700503 118.082732 
L 255.943719 116.847815 
L 258.186935 115.447276 
L 260.430151 113.886698 
L 262.673367 112.172302 
L 267.159799 108.309979 
L 271.646231 103.921831 
L 276.132663 99.077757 
L 280.619095 93.854921 
L 285.105528 88.336518 
L 291.835176 79.697961 
L 305.294472 62.263482 
L 309.780905 56.745079 
L 314.267337 51.522243 
L 318.753769 46.678169 
L 323.240201 42.290021 
L 327.726633 38.427698 
L 329.969849 36.713302 
L 332.213065 35.152724 
L 334.456281 33.752185 
L 336.699497 32.517268 
L 338.942714 31.452895 
L 341.18593 30.56331 
L 343.429146 29.852058 
L 345.672362 29.321975 
L 347.915578 28.975174 
L 350.158794 28.813037 
L 352.40201 28.836211 
L 354.645226 29.044603 
L 356.888442 29.437383 
L 359.131658 30.012985 
L 361.374874 30.769114 
L 363.61809 31.702756 
L 365.861307 32.810189 
L 368.104523 34.087 
L 370.347739 35.528097 
L 372.590955 37.127737 
L 374.834171 38.879543 
L 379.320603 42.811141 
L 383.807035 47.260263 
L 388.293467 52.156037 
L 392.779899 57.420479 
L 399.509548 65.823671 
L 419.698492 91.815524 
L 424.184925 97.15923 
L 428.671357 102.154734 
L 433.157789 106.722461 
L 437.644221 110.789651 
L 439.887437 112.614958 
L 442.130653 114.291516 
L 444.373869 115.812643 
L 446.617085 117.172275 
L 448.860302 118.364991 
L 451.103518 119.386038 
L 453.346734 120.231345 
L 455.58995 120.897542 
L 457.833166 121.381975 
L 460.076382 121.682711 
L 462.319598 121.798551 
L 464.562814 121.729035 
L 466.80603 121.47444 
L 469.049246 121.035779 
L 471.292462 120.414802 
L 473.535678 119.613984 
L 475.778894 118.636518 
L 478.022111 117.4863 
L 480.265327 116.167914 
L 482.508543 114.686618 
L 484.751759 113.048314 
L 486.994975 111.259535 
L 491.481407 107.259643 
L 495.967839 102.750656 
L 500.454271 97.8044 
L 504.940704 92.499666 
L 511.670352 84.056492 
L 518.4 75.3 
L 518.4 75.3 
" style="fill:none;stroke:#0000ff;stroke-linecap:square;"/>
   </g>
   <g id="line2d_2">
    <path clip-path="url(#p8977ff8bff)" d="M 72 28.8 
L 74.243216 28.892681 
L 76.486432 29.170356 
L 78.729648 29.631917 
L 80.972864 30.275524 
L 83.21608 31.098612 
L 85.459296 32.097899 
L 87.702513 33.269403 
L 89.945729 34.608453 
L 92.188945 36.109712 
L 94.432161 37.767195 
L 98.918593 41.523807 
L 103.405025 45.818449 
L 107.891457 50.582711 
L 112.377889 55.740702 
L 116.864322 61.210259 
L 123.59397 69.807174 
L 137.053266 87.275985 
L 141.539698 92.84014 
L 146.026131 98.124893 
L 150.512563 103.046061 
L 154.998995 107.525255 
L 159.485427 111.491123 
L 161.728643 113.261471 
L 163.971859 114.880493 
L 166.215075 116.341736 
L 168.458291 117.639374 
L 170.701508 118.768235 
L 172.944724 119.723819 
L 175.18794 120.502317 
L 177.431156 121.100625 
L 179.674372 121.516358 
L 181.917588 121.747859 
L 184.160804 121.794206 
L 186.40402 121.655213 
L 188.647236 121.331434 
L 190.890452 120.824161 
L 193.133668 120.135415 
L 195.376884 119.267941 
L 197.620101 118.225199 
L 199.863317 117.011344 
L 202.106533 115.631216 
L 204.349749 114.090316 
L 206.592965 112.394786 
L 211.079397 108.567462 
L 215.565829 104.210211 
L 220.052261 99.392442 
L 224.538693 94.190897 
L 229.025126 88.688434 
L 235.754774 80.06322 
L 249.21407 62.61621 
L 253.700503 57.082211 
L 258.186935 51.838409 
L 262.673367 46.968333 
L 267.159799 42.549561 
L 271.646231 38.652479 
L 273.889447 36.919324 
L 276.132663 35.339166 
L 278.375879 33.918303 
L 280.619095 32.6624 
L 282.862312 31.576463 
L 285.105528 30.664821 
L 287.348744 29.931108 
L 289.59196 29.378248 
L 291.835176 29.008446 
L 294.078392 28.823176 
L 296.321608 28.823176 
L 298.564824 29.008446 
L 300.80804 29.378248 
L 303.051256 29.931108 
L 305.294472 30.664821 
L 307.537688 31.576463 
L 309.780905 32.6624 
L 312.024121 33.918303 
L 314.267337 35.339166 
L 316.510553 36.919324 
L 318.753769 38.652479 
L 323.240201 42.549561 
L 327.726633 46.968333 
L 332.213065 51.838409 
L 336.699497 57.082211 
L 343.429146 65.464628 
L 354.645226 80.06322 
L 361.374874 88.688434 
L 365.861307 94.190897 
L 370.347739 99.392442 
L 374.834171 104.210211 
L 379.320603 108.567462 
L 383.807035 112.394786 
L 386.050251 114.090316 
L 388.293467 115.631216 
L 390.536683 117.011344 
L 392.779899 118.225199 
L 395.023116 119.267941 
L 397.266332 120.135415 
L 399.509548 120.824161 
L 401.752764 121.331434 
L 403.99598 121.655213 
L 406.239196 121.794206 
L 408.482412 121.747859 
L 410.725628 121.516358 
L 412.968844 121.100625 
L 415.21206 120.502317 
L 417.455276 119.723819 
L 419.698492 118.768235 
L 421.941709 117.639374 
L 424.184925 116.341736 
L 426.428141 114.880493 
L 428.671357 113.261471 
L 430.914573 111.491123 
L 435.401005 107.525255 
L 439.887437 103.046061 
L 444.373869 98.124893 
L 448.860302 92.84014 
L 455.58995 84.416695 
L 475.778894 58.44188 
L 480.265327 53.117494 
L 484.751759 48.146459 
L 489.238191 43.607961 
L 493.724623 39.574294 
L 495.967839 37.767195 
L 498.211055 36.109712 
L 500.454271 34.608453 
L 502.697487 33.269403 
L 504.940704 32.097899 
L 507.18392 31.098612 
L 509.427136 30.275524 
L 511.670352 29.631917 
L 513.913568 29.170356 
L 516.156784 28.892681 
L 518.4 28.8 
L 518.4 28.8 
" style="fill:none;stroke:#ff0000;stroke-dasharray:6.000000,6.000000;stroke-dashoffset:0.0;"/>
   </g>
   <g id="patch_3">
    <path d="M 518.4 121.8 
L 518.4 28.8 
" style="fill:none;stroke:#000000;stroke-linecap:square;stroke-linejoin:miter;"/>
   </g>
   <g id="patch_4">
    <path d="M 72 121.8 
L 72 28.8 
" style="fill:none;stroke:#000000;stroke-linecap:square;stroke-linejoin:miter;"/>
   </g>
   <g id="patch_5">
    <path d="M 72 121.8 
L 518.4 121.8 
" style="fill:none;stroke:#000000;stroke-linecap:square;stroke-linejoin:miter;"/>
   </g>
   <g id="patch_6">
    <path d="M 72 28.8 
L 518.4 28.8 
" style="fill:none;stroke:#000000;stroke-linecap:square;stroke-linejoin:miter;"/>
   </g>
   <g id="matplotlib.axis_1">
    <g id="xtick_1">
     <g id="line2d_3">
      <defs>
       <path d="M 0 0 
L 0 -4 
" id="mdb5eb7c02c" style="stroke:#000000;stroke-width:0.5;"/>
      </defs>
      <g>
       <use style="stroke:#000000;stroke-width:0.5;" x="72.0" xlink:href="#mdb5eb7c02c" y="121.8"/>
      </g>
     </g>
     <g id="line2d_4">
      <defs>
       <path d="M 0 0 
L 0 4 
" id="mb69b80334b" style="stroke:#000000;stroke-width:0.5;"/>
      </defs>
      <g>
       <use style="stroke:#000000;stroke-width:0.5;" x="72.0" xlink:href="#mb69b80334b" y="28.8"/>
      </g>
     </g>
     <g id="text_1">
      <!-- 0 -->
      <defs>
       <path d="M 31.78125 66.40625 
Q 24.171875 66.40625 20.328125 58.90625 
Q 16.5 51.421875 16.5 36.375 
Q 16.5 21.390625 20.328125 13.890625 
Q 24.171875 6.390625 31.78125 6.390625 
Q 39.453125 6.390625 43.28125 13.890625 
Q 47.125 21.390625 47.125 36.375 
Q 47.125 51.421875 43.28125 58.90625 
Q 39.453125 66.40625 31.78125 66.40625 
M 31.78125 74.21875 
Q 44.046875 74.21875 50.515625 64.515625 
Q 56.984375 54.828125 56.984375 36.375 
Q 56.984375 17.96875 50.515625 8.265625 
Q 44.046875 -1.421875 31.78125 -1.421875 
Q 19.53125 -1.421875 13.0625 8.265625 
Q 6.59375 17.96875 6.59375 36.375 
Q 6.59375 54.828125 13.0625 64.515625 
Q 19.53125 74.21875 31.78125 74.21875 
" id="BitstreamVeraSans-Roman-30"/>
      </defs>
      <g transform="translate(68.81875 133.3984375)scale(0.1 -0.1)">
       <use xlink:href="#BitstreamVeraSans-Roman-30"/>
      </g>
     </g>
    </g>
    <g id="xtick_2">
     <g id="line2d_5">
      <g>
       <use style="stroke:#000000;stroke-width:0.5;" x="143.046766596" xlink:href="#mdb5eb7c02c" y="121.8"/>
      </g>
     </g>
     <g id="line2d_6">
      <g>
       <use style="stroke:#000000;stroke-width:0.5;" x="143.046766596" xlink:href="#mb69b80334b" y="28.8"/>
      </g>
     </g>
     <g id="text_2">
      <!-- 1 -->
      <defs>
       <path d="M 12.40625 8.296875 
L 28.515625 8.296875 
L 28.515625 63.921875 
L 10.984375 60.40625 
L 10.984375 69.390625 
L 28.421875 72.90625 
L 38.28125 72.90625 
L 38.28125 8.296875 
L 54.390625 8.296875 
L 54.390625 0 
L 12.40625 0 
z
" id="BitstreamVeraSans-Roman-31"/>
      </defs>
      <g transform="translate(139.865516596 133.3984375)scale(0.1 -0.1)">
       <use xlink:href="#BitstreamVeraSans-Roman-31"/>
      </g>
     </g>
    </g>
    <g id="xtick_3">
     <g id="line2d_7">
      <g>
       <use style="stroke:#000000;stroke-width:0.5;" x="214.093533192" xlink:href="#mdb5eb7c02c" y="121.8"/>
      </g>
     </g>
     <g id="line2d_8">
      <g>
       <use style="stroke:#000000;stroke-width:0.5;" x="214.093533192" xlink:href="#mb69b80334b" y="28.8"/>
      </g>
     </g>
     <g id="text_3">
      <!-- 2 -->
      <defs>
       <path d="M 19.1875 8.296875 
L 53.609375 8.296875 
L 53.609375 0 
L 7.328125 0 
L 7.328125 8.296875 
Q 12.9375 14.109375 22.625 23.890625 
Q 32.328125 33.6875 34.8125 36.53125 
Q 39.546875 41.84375 41.421875 45.53125 
Q 43.3125 49.21875 43.3125 52.78125 
Q 43.3125 58.59375 39.234375 62.25 
Q 35.15625 65.921875 28.609375 65.921875 
Q 23.96875 65.921875 18.8125 64.3125 
Q 13.671875 62.703125 7.8125 59.421875 
L 7.8125 69.390625 
Q 13.765625 71.78125 18.9375 73 
Q 24.125 74.21875 28.421875 74.21875 
Q 39.75 74.21875 46.484375 68.546875 
Q 53.21875 62.890625 53.21875 53.421875 
Q 53.21875 48.921875 51.53125 44.890625 
Q 49.859375 40.875 45.40625 35.40625 
Q 44.1875 33.984375 37.640625 27.21875 
Q 31.109375 20.453125 19.1875 8.296875 
" id="BitstreamVeraSans-Roman-32"/>
      </defs>
      <g transform="translate(210.912283192 133.3984375)scale(0.1 -0.1)">
       <use xlink:href="#BitstreamVeraSans-Roman-32"/>
      </g>
     </g>
    </g>
    <g id="xtick_4">
     <g id="line2d_9">
      <g>
       <use style="stroke:#000000;stroke-width:0.5;" x="285.140299789" xlink:href="#mdb5eb7c02c" y="121.8"/>
      </g>
     </g>
     <g id="line2d_10">
      <g>
       <use style="stroke:#000000;stroke-width:0.5;" x="285.140299789" xlink:href="#mb69b80334b" y="28.8"/>
      </g>
     </g>
     <g id="text_4">
      <!-- 3 -->
      <defs>
       <path d="M 40.578125 39.3125 
Q 47.65625 37.796875 51.625 33 
Q 55.609375 28.21875 55.609375 21.1875 
Q 55.609375 10.40625 48.1875 4.484375 
Q 40.765625 -1.421875 27.09375 -1.421875 
Q 22.515625 -1.421875 17.65625 -0.515625 
Q 12.796875 0.390625 7.625 2.203125 
L 7.625 11.71875 
Q 11.71875 9.328125 16.59375 8.109375 
Q 21.484375 6.890625 26.8125 6.890625 
Q 36.078125 6.890625 40.9375 10.546875 
Q 45.796875 14.203125 45.796875 21.1875 
Q 45.796875 27.640625 41.28125 31.265625 
Q 36.765625 34.90625 28.71875 34.90625 
L 20.21875 34.90625 
L 20.21875 43.015625 
L 29.109375 43.015625 
Q 36.375 43.015625 40.234375 45.921875 
Q 44.09375 48.828125 44.09375 54.296875 
Q 44.09375 59.90625 40.109375 62.90625 
Q 36.140625 65.921875 28.71875 65.921875 
Q 24.65625 65.921875 20.015625 65.03125 
Q 15.375 64.15625 9.8125 62.3125 
L 9.8125 71.09375 
Q 15.4375 72.65625 20.34375 73.4375 
Q 25.25 74.21875 29.59375 74.21875 
Q 40.828125 74.21875 47.359375 69.109375 
Q 53.90625 64.015625 53.90625 55.328125 
Q 53.90625 49.265625 50.4375 45.09375 
Q 46.96875 40.921875 40.578125 39.3125 
" id="BitstreamVeraSans-Roman-33"/>
      </defs>
      <g transform="translate(281.959049789 133.3984375)scale(0.1 -0.1)">
       <use xlink:href="#BitstreamVeraSans-Roman-33"/>
      </g>
     </g>
    </g>
    <g id="xtick_5">
     <g id="line2d_11">
      <g>
       <use style="stroke:#000000;stroke-width:0.5;" x="356.187066385" xlink:href="#mdb5eb7c02c" y="121.8"/>
      </g>
     </g>
     <g id="line2d_12">
      <g>
       <use style="stroke:#000000;stroke-width:0.5;" x="356.187066385" xlink:href="#mb69b80334b" y="28.8"/>
      </g>
     </g>
     <g id="text_5">
      <!-- 4 -->
      <defs>
       <path d="M 37.796875 64.3125 
L 12.890625 25.390625 
L 37.796875 25.390625 
z
M 35.203125 72.90625 
L 47.609375 72.90625 
L 47.609375 25.390625 
L 58.015625 25.390625 
L 58.015625 17.1875 
L 47.609375 17.1875 
L 47.609375 0 
L 37.796875 0 
L 37.796875 17.1875 
L 4.890625 17.1875 
L 4.890625 26.703125 
z
" id="BitstreamVeraSans-Roman-34"/>
      </defs>
      <g transform="translate(353.005816385 133.3984375)scale(0.1 -0.1)">
       <use xlink:href="#BitstreamVeraSans-Roman-34"/>
      </g>
     </g>
    </g>
    <g id="xtick_6">
     <g id="line2d_13">
      <g>
       <use style="stroke:#000000;stroke-width:0.5;" x="427.233832981" xlink:href="#mdb5eb7c02c" y="121.8"/>
      </g>
     </g>
     <g id="line2d_14">
      <g>
       <use style="stroke:#000000;stroke-width:0.5;" x="427.233832981" xlink:href="#mb69b80334b" y="28.8"/>
      </g>
     </g>
     <g id="text_6">
      <!-- 5 -->
      <defs>
       <path d="M 10.796875 72.90625 
L 49.515625 72.90625 
L 49.515625 64.59375 
L 19.828125 64.59375 
L 19.828125 46.734375 
Q 21.96875 47.46875 24.109375 47.828125 
Q 26.265625 48.1875 28.421875 48.1875 
Q 40.625 48.1875 47.75 41.5 
Q 54.890625 34.8125 54.890625 23.390625 
Q 54.890625 11.625 47.5625 5.09375 
Q 40.234375 -1.421875 26.90625 -1.421875 
Q 22.3125 -1.421875 17.546875 -0.640625 
Q 12.796875 0.140625 7.71875 1.703125 
L 7.71875 11.625 
Q 12.109375 9.234375 16.796875 8.0625 
Q 21.484375 6.890625 26.703125 6.890625 
Q 35.15625 6.890625 40.078125 11.328125 
Q 45.015625 15.765625 45.015625 23.390625 
Q 45.015625 31 40.078125 35.4375 
Q 35.15625 39.890625 26.703125 39.890625 
Q 22.75 39.890625 18.8125 39.015625 
Q 14.890625 38.140625 10.796875 36.28125 
z
" id="BitstreamVeraSans-Roman-35"/>
      </defs>
      <g transform="translate(424.052582981 133.3984375)scale(0.1 -0.1)">
       <use xlink:href="#BitstreamVeraSans-Roman-35"/>
      </g>
     </g>
    </g>
    <g id="xtick_7">
     <g id="line2d_15">
      <g>
       <use style="stroke:#000000;stroke-width:0.5;" x="498.280599577" xlink:href="#mdb5eb7c02c" y="121.8"/>
      </g>
     </g>
     <g id="line2d_16">
      <g>
       <use style="stroke:#000000;stroke-width:0.5;" x="498.280599577" xlink:href="#mb69b80334b" y="28.8"/>
      </g>
     </g>
     <g id="text_7">
      <!-- 6 -->
      <defs>
       <path d="M 33.015625 40.375 
Q 26.375 40.375 22.484375 35.828125 
Q 18.609375 31.296875 18.609375 23.390625 
Q 18.609375 15.53125 22.484375 10.953125 
Q 26.375 6.390625 33.015625 6.390625 
Q 39.65625 6.390625 43.53125 10.953125 
Q 47.40625 15.53125 47.40625 23.390625 
Q 47.40625 31.296875 43.53125 35.828125 
Q 39.65625 40.375 33.015625 40.375 
M 52.59375 71.296875 
L 52.59375 62.3125 
Q 48.875 64.0625 45.09375 64.984375 
Q 41.3125 65.921875 37.59375 65.921875 
Q 27.828125 65.921875 22.671875 59.328125 
Q 17.53125 52.734375 16.796875 39.40625 
Q 19.671875 43.65625 24.015625 45.921875 
Q 28.375 48.1875 33.59375 48.1875 
Q 44.578125 48.1875 50.953125 41.515625 
Q 57.328125 34.859375 57.328125 23.390625 
Q 57.328125 12.15625 50.6875 5.359375 
Q 44.046875 -1.421875 33.015625 -1.421875 
Q 20.359375 -1.421875 13.671875 8.265625 
Q 6.984375 17.96875 6.984375 36.375 
Q 6.984375 53.65625 15.1875 63.9375 
Q 23.390625 74.21875 37.203125 74.21875 
Q 40.921875 74.21875 44.703125 73.484375 
Q 48.484375 72.75 52.59375 71.296875 
" id="BitstreamVeraSans-Roman-36"/>
      </defs>
      <g transform="translate(495.099349577 133.3984375)scale(0.1 -0.1)">
       <use xlink:href="#BitstreamVeraSans-Roman-36"/>
      </g>
     </g>
    </g>
   </g>
   <g id="matplotlib.axis_2">
    <g id="ytick_1">
     <g id="line2d_17">
      <defs>
       <path d="M 0 0 
L 4 0 
" id="m2bed479018" style="stroke:#000000;stroke-width:0.5;"/>
      </defs>
      <g>
       <use style="stroke:#000000;stroke-width:0.5;" x="72.0" xlink:href="#m2bed479018" y="121.8"/>
      </g>
     </g>
     <g id="line2d_18">
      <defs>
       <path d="M 0 0 
L -4 0 
" id="m3ff95ef8ae" style="stroke:#000000;stroke-width:0.5;"/>
      </defs>
      <g>
       <use style="stroke:#000000;stroke-width:0.5;" x="518.4" xlink:href="#m3ff95ef8ae" y="121.8"/>
      </g>
     </g>
     <g id="text_8">
      <!-- −1.0 -->
      <defs>
       <path d="M 10.6875 12.40625 
L 21 12.40625 
L 21 0 
L 10.6875 0 
z
" id="BitstreamVeraSans-Roman-2e"/>
       <path d="M 10.59375 35.5 
L 73.1875 35.5 
L 73.1875 27.203125 
L 10.59375 27.203125 
z
" id="BitstreamVeraSans-Roman-2212"/>
      </defs>
      <g transform="translate(43.7171875 124.559375)scale(0.1 -0.1)">
       <use xlink:href="#BitstreamVeraSans-Roman-2212"/>
       <use x="83.7890625" xlink:href="#BitstreamVeraSans-Roman-31"/>
       <use x="147.412109375" xlink:href="#BitstreamVeraSans-Roman-2e"/>
       <use x="179.19921875" xlink:href="#BitstreamVeraSans-Roman-30"/>
      </g>
     </g>
    </g>
    <g id="ytick_2">
     <g id="line2d_19">
      <g>
       <use style="stroke:#000000;stroke-width:0.5;" x="72.0" xlink:href="#m2bed479018" y="98.55"/>
      </g>
     </g>
     <g id="line2d_20">
      <g>
       <use style="stroke:#000000;stroke-width:0.5;" x="518.4" xlink:href="#m3ff95ef8ae" y="98.55"/>
      </g>
     </g>
     <g id="text_9">
      <!-- −0.5 -->
      <g transform="translate(43.7171875 101.309375)scale(0.1 -0.1)">
       <use xlink:href="#BitstreamVeraSans-Roman-2212"/>
       <use x="83.7890625" xlink:href="#BitstreamVeraSans-Roman-30"/>
       <use x="147.412109375" xlink:href="#BitstreamVeraSans-Roman-2e"/>
       <use x="179.19921875" xlink:href="#BitstreamVeraSans-Roman-35"/>
      </g>
     </g>
    </g>
    <g id="ytick_3">
     <g id="line2d_21">
      <g>
       <use style="stroke:#000000;stroke-width:0.5;" x="72.0" xlink:href="#m2bed479018" y="75.3"/>
      </g>
     </g>
     <g id="line2d_22">
      <g>
       <use style="stroke:#000000;stroke-width:0.5;" x="518.4" xlink:href="#m3ff95ef8ae" y="75.3"/>
      </g>
     </g>
     <g id="text_10">
      <!-- 0.0 -->
      <g transform="translate(52.096875 78.059375)scale(0.1 -0.1)">
       <use xlink:href="#BitstreamVeraSans-Roman-30"/>
       <use x="63.623046875" xlink:href="#BitstreamVeraSans-Roman-2e"/>
       <use x="95.41015625" xlink:href="#BitstreamVeraSans-Roman-30"/>
      </g>
     </g>
    </g>
    <g id="ytick_4">
     <g id="line2d_23">
      <g>
       <use style="stroke:#000000;stroke-width:0.5;" x="72.0" xlink:href="#m2bed479018" y="52.05"/>
      </g>
     </g>
     <g id="line2d_24">
      <g>
       <use style="stroke:#000000;stroke-width:0.5;" x="518.4" xlink:href="#m3ff95ef8ae" y="52.05"/>
      </g>
     </g>
     <g id="text_11">
      <!-- 0.5 -->
      <g transform="translate(52.096875 54.809375)scale(0.1 -0.1)">
       <use xlink:href="#BitstreamVeraSans-Roman-30"/>
       <use x="63.623046875" xlink:href="#BitstreamVeraSans-Roman-2e"/>
       <use x="95.41015625" xlink:href="#BitstreamVeraSans-Roman-35"/>
      </g>
     </g>
    </g>
    <g id="ytick_5">
     <g id="line2d_25">
      <g>
       <use style="stroke:#000000;stroke-width:0.5;" x="72.0" xlink:href="#m2bed479018" y="28.8"/>
      </g>
     </g>
     <g id="line2d_26">
      <g>
       <use style="stroke:#000000;stroke-width:0.5;" x="518.4" xlink:href="#m3ff95ef8ae" y="28.8"/>
      </g>
     </g>
     <g id="text_12">
      <!-- 1.0 -->
      <g transform="translate(52.096875 31.559375)scale(0.1 -0.1)">
       <use xlink:href="#BitstreamVeraSans-Roman-31"/>
       <use x="63.623046875" xlink:href="#BitstreamVeraSans-Roman-2e"/>
       <use x="95.41015625" xlink:href="#BitstreamVeraSans-Roman-30"/>
      </g>
     </g>
    </g>
   </g>
   <g id="text_13">
    <!-- subplot(2,1,1) -->
    <defs>
     <path d="M 18.109375 8.203125 
L 18.109375 -20.796875 
L 9.078125 -20.796875 
L 9.078125 54.6875 
L 18.109375 54.6875 
L 18.109375 46.390625 
Q 20.953125 51.265625 25.265625 53.625 
Q 29.59375 56 35.59375 56 
Q 45.5625 56 51.78125 48.09375 
Q 58.015625 40.1875 58.015625 27.296875 
Q 58.015625 14.40625 51.78125 6.484375 
Q 45.5625 -1.421875 35.59375 -1.421875 
Q 29.59375 -1.421875 25.265625 0.953125 
Q 20.953125 3.328125 18.109375 8.203125 
M 48.6875 27.296875 
Q 48.6875 37.203125 44.609375 42.84375 
Q 40.53125 48.484375 33.40625 48.484375 
Q 26.265625 48.484375 22.1875 42.84375 
Q 18.109375 37.203125 18.109375 27.296875 
Q 18.109375 17.390625 22.1875 11.75 
Q 26.265625 6.109375 33.40625 6.109375 
Q 40.53125 6.109375 44.609375 11.75 
Q 48.6875 17.390625 48.6875 27.296875 
" id="BitstreamVeraSans-Roman-70"/>
     <path d="M 8.5 21.578125 
L 8.5 54.6875 
L 17.484375 54.6875 
L 17.484375 21.921875 
Q 17.484375 14.15625 20.5 10.265625 
Q 23.53125 6.390625 29.59375 6.390625 
Q 36.859375 6.390625 41.078125 11.03125 
Q 45.3125 15.671875 45.3125 23.6875 
L 45.3125 54.6875 
L 54.296875 54.6875 
L 54.296875 0 
L 45.3125 0 
L 45.3125 8.40625 
Q 42.046875 3.421875 37.71875 1 
Q 33.40625 -1.421875 27.6875 -1.421875 
Q 18.265625 -1.421875 13.375 4.4375 
Q 8.5 10.296875 8.5 21.578125 
" id="BitstreamVeraSans-Roman-75"/>
     <path d="M 48.6875 27.296875 
Q 48.6875 37.203125 44.609375 42.84375 
Q 40.53125 48.484375 33.40625 48.484375 
Q 26.265625 48.484375 22.1875 42.84375 
Q 18.109375 37.203125 18.109375 27.296875 
Q 18.109375 17.390625 22.1875 11.75 
Q 26.265625 6.109375 33.40625 6.109375 
Q 40.53125 6.109375 44.609375 11.75 
Q 48.6875 17.390625 48.6875 27.296875 
M 18.109375 46.390625 
Q 20.953125 51.265625 25.265625 53.625 
Q 29.59375 56 35.59375 56 
Q 45.5625 56 51.78125 48.09375 
Q 58.015625 40.1875 58.015625 27.296875 
Q 58.015625 14.40625 51.78125 6.484375 
Q 45.5625 -1.421875 35.59375 -1.421875 
Q 29.59375 -1.421875 25.265625 0.953125 
Q 20.953125 3.328125 18.109375 8.203125 
L 18.109375 0 
L 9.078125 0 
L 9.078125 75.984375 
L 18.109375 75.984375 
z
" id="BitstreamVeraSans-Roman-62"/>
     <path d="M 18.3125 70.21875 
L 18.3125 54.6875 
L 36.8125 54.6875 
L 36.8125 47.703125 
L 18.3125 47.703125 
L 18.3125 18.015625 
Q 18.3125 11.328125 20.140625 9.421875 
Q 21.96875 7.515625 27.59375 7.515625 
L 36.8125 7.515625 
L 36.8125 0 
L 27.59375 0 
Q 17.1875 0 13.234375 3.875 
Q 9.28125 7.765625 9.28125 18.015625 
L 9.28125 47.703125 
L 2.6875 47.703125 
L 2.6875 54.6875 
L 9.28125 54.6875 
L 9.28125 70.21875 
z
" id="BitstreamVeraSans-Roman-74"/>
     <path d="M 30.609375 48.390625 
Q 23.390625 48.390625 19.1875 42.75 
Q 14.984375 37.109375 14.984375 27.296875 
Q 14.984375 17.484375 19.15625 11.84375 
Q 23.34375 6.203125 30.609375 6.203125 
Q 37.796875 6.203125 41.984375 11.859375 
Q 46.1875 17.53125 46.1875 27.296875 
Q 46.1875 37.015625 41.984375 42.703125 
Q 37.796875 48.390625 30.609375 48.390625 
M 30.609375 56 
Q 42.328125 56 49.015625 48.375 
Q 55.71875 40.765625 55.71875 27.296875 
Q 55.71875 13.875 49.015625 6.21875 
Q 42.328125 -1.421875 30.609375 -1.421875 
Q 18.84375 -1.421875 12.171875 6.21875 
Q 5.515625 13.875 5.515625 27.296875 
Q 5.515625 40.765625 12.171875 48.375 
Q 18.84375 56 30.609375 56 
" id="BitstreamVeraSans-Roman-6f"/>
     <path d="M 44.28125 53.078125 
L 44.28125 44.578125 
Q 40.484375 46.53125 36.375 47.5 
Q 32.28125 48.484375 27.875 48.484375 
Q 21.1875 48.484375 17.84375 46.4375 
Q 14.5 44.390625 14.5 40.28125 
Q 14.5 37.15625 16.890625 35.375 
Q 19.28125 33.59375 26.515625 31.984375 
L 29.59375 31.296875 
Q 39.15625 29.25 43.1875 25.515625 
Q 47.21875 21.78125 47.21875 15.09375 
Q 47.21875 7.46875 41.1875 3.015625 
Q 35.15625 -1.421875 24.609375 -1.421875 
Q 20.21875 -1.421875 15.453125 -0.5625 
Q 10.6875 0.296875 5.421875 2 
L 5.421875 11.28125 
Q 10.40625 8.6875 15.234375 7.390625 
Q 20.0625 6.109375 24.8125 6.109375 
Q 31.15625 6.109375 34.5625 8.28125 
Q 37.984375 10.453125 37.984375 14.40625 
Q 37.984375 18.0625 35.515625 20.015625 
Q 33.0625 21.96875 24.703125 23.78125 
L 21.578125 24.515625 
Q 13.234375 26.265625 9.515625 29.90625 
Q 5.8125 33.546875 5.8125 39.890625 
Q 5.8125 47.609375 11.28125 51.796875 
Q 16.75 56 26.8125 56 
Q 31.78125 56 36.171875 55.265625 
Q 40.578125 54.546875 44.28125 53.078125 
" id="BitstreamVeraSans-Roman-73"/>
     <path d="M 11.71875 12.40625 
L 22.015625 12.40625 
L 22.015625 4 
L 14.015625 -11.625 
L 7.71875 -11.625 
L 11.71875 4 
z
" id="BitstreamVeraSans-Roman-2c"/>
     <path d="M 9.421875 75.984375 
L 18.40625 75.984375 
L 18.40625 0 
L 9.421875 0 
z
" id="BitstreamVeraSans-Roman-6c"/>
     <path d="M 8.015625 75.875 
L 15.828125 75.875 
Q 23.140625 64.359375 26.78125 53.3125 
Q 30.421875 42.28125 30.421875 31.390625 
Q 30.421875 20.453125 26.78125 9.375 
Q 23.140625 -1.703125 15.828125 -13.1875 
L 8.015625 -13.1875 
Q 14.5 -2 17.703125 9.0625 
Q 20.90625 20.125 20.90625 31.390625 
Q 20.90625 42.671875 17.703125 53.65625 
Q 14.5 64.65625 8.015625 75.875 
" id="BitstreamVeraSans-Roman-29"/>
     <path d="M 31 75.875 
Q 24.46875 64.65625 21.28125 53.65625 
Q 18.109375 42.671875 18.109375 31.390625 
Q 18.109375 20.125 21.3125 9.0625 
Q 24.515625 -2 31 -13.1875 
L 23.1875 -13.1875 
Q 15.875 -1.703125 12.234375 9.375 
Q 8.59375 20.453125 8.59375 31.390625 
Q 8.59375 42.28125 12.203125 53.3125 
Q 15.828125 64.359375 23.1875 75.875 
z
" id="BitstreamVeraSans-Roman-28"/>
    </defs>
    <g transform="translate(253.0153125 23.8)scale(0.12 -0.12)">
     <use xlink:href="#BitstreamVeraSans-Roman-73"/>
     <use x="52.099609375" xlink:href="#BitstreamVeraSans-Roman-75"/>
     <use x="115.478515625" xlink:href="#BitstreamVeraSans-Roman-62"/>
     <use x="178.955078125" xlink:href="#BitstreamVeraSans-Roman-70"/>
     <use x="242.431640625" xlink:href="#BitstreamVeraSans-Roman-6c"/>
     <use x="270.21484375" xlink:href="#BitstreamVeraSans-Roman-6f"/>
     <use x="331.396484375" xlink:href="#BitstreamVeraSans-Roman-74"/>
     <use x="370.60546875" xlink:href="#BitstreamVeraSans-Roman-28"/>
     <use x="409.619140625" xlink:href="#BitstreamVeraSans-Roman-32"/>
     <use x="473.2421875" xlink:href="#BitstreamVeraSans-Roman-2c"/>
     <use x="505.029296875" xlink:href="#BitstreamVeraSans-Roman-31"/>
     <use x="568.65234375" xlink:href="#BitstreamVeraSans-Roman-2c"/>
     <use x="600.439453125" xlink:href="#BitstreamVeraSans-Roman-31"/>
     <use x="664.0625" xlink:href="#BitstreamVeraSans-Roman-29"/>
    </g>
   </g>
  </g>
  <g id="axes_2">
   <g id="patch_7">
    <path d="M 72 252 
L 518.4 252 
L 518.4 159 
L 72 159 
z
" style="fill:#ffffff;"/>
   </g>
   <g id="line2d_27">
    <path clip-path="url(#p8696d9203b)" d="M 72 205.5 
L 74.243216 191.060912 
L 76.486432 178.049344 
L 78.729648 167.751686 
L 80.972864 161.186016 
L 83.21608 159.001449 
L 85.459296 161.413962 
L 87.702513 168.185042 
L 89.945729 178.645266 
L 92.188945 191.760485 
L 96.675377 220.635063 
L 98.918593 233.539737 
L 101.161809 243.672263 
L 103.405025 250.030886 
L 105.648241 251.986963 
L 107.891457 249.347105 
L 110.134673 242.372302 
L 112.377889 231.752118 
L 114.621106 218.536518 
L 119.107538 189.672734 
L 121.350754 176.878169 
L 123.59397 166.913302 
L 125.837186 160.76331 
L 128.080402 159.036211 
L 130.323618 161.902756 
L 132.566834 169.079543 
L 134.81005 179.85704 
L 137.053266 193.169728 
L 141.539698 222.015524 
L 143.782915 234.696791 
L 146.026131 244.491516 
L 148.269347 250.431345 
L 150.512563 251.929035 
L 152.755779 248.836518 
L 154.998995 241.459535 
L 157.242211 230.527412 
L 159.485427 217.120953 
L 163.971859 188.300334 
L 166.215075 175.735526 
L 168.458291 166.113382 
L 170.701508 160.385198 
L 172.944724 159.117289 
L 175.18794 162.435009 
L 177.431156 170.010349 
L 179.674372 181.094374 
L 181.917588 194.591263 
L 186.40402 223.379521 
L 188.647236 235.82474 
L 190.890452 245.271903 
L 193.133668 250.787015 
L 195.376884 251.824826 
L 197.620101 248.282732 
L 199.863317 240.510922 
L 202.106533 229.277757 
L 204.349749 215.693803 
L 208.836181 186.945079 
L 211.079397 174.622552 
L 213.322613 165.352724 
L 215.565829 160.052058 
L 217.809045 159.244603 
L 220.052261 163.010189 
L 222.295477 170.976532 
L 224.538693 182.356037 
L 226.78191 196.023671 
L 231.268342 224.725696 
L 233.511558 236.922461 
L 235.754774 246.012643 
L 237.99799 251.097542 
L 240.241206 251.67444 
L 242.484422 247.6863 
L 244.727638 239.52741 
L 246.970854 228.0044 
L 249.21407 214.256492 
L 253.700503 185.60832 
L 255.943719 173.540357 
L 258.186935 164.632086 
L 260.430151 159.764221 
L 262.673367 159.418025 
L 264.916583 163.627725 
L 267.159799 171.977128 
L 269.403015 183.64077 
L 271.646231 197.465526 
L 276.132663 226.052707 
L 278.375879 237.988859 
L 280.619095 246.713 
L 282.862312 251.362617 
L 285.105528 251.478025 
L 287.348744 247.047815 
L 289.59196 238.509979 
L 291.835176 226.708611 
L 294.078392 212.810453 
L 298.564824 184.291389 
L 300.80804 172.490021 
L 303.051256 163.952185 
L 305.294472 159.521975 
L 307.537688 159.637383 
L 309.780905 164.287 
L 312.024121 173.011141 
L 314.267337 184.947293 
L 320.996985 227.35923 
L 323.240201 239.022872 
L 325.483417 247.372275 
L 327.726633 251.581975 
L 329.969849 251.235779 
L 332.213065 246.367914 
L 334.456281 237.459643 
L 336.699497 225.39168 
L 343.429146 182.9956 
L 345.672362 171.47259 
L 347.915578 163.3137 
L 350.158794 159.32556 
L 352.40201 159.902458 
L 354.645226 164.987357 
L 356.888442 174.077539 
L 359.131658 186.274304 
L 365.861307 228.643963 
L 368.104523 240.023468 
L 370.347739 247.989811 
L 372.590955 251.755397 
L 374.834171 250.947942 
L 377.077387 245.647276 
L 379.320603 236.377448 
L 381.563819 224.054921 
L 388.293467 181.722243 
L 390.536683 170.489078 
L 392.779899 162.717268 
L 395.023116 159.175174 
L 397.266332 160.212985 
L 399.509548 165.728097 
L 401.752764 175.17526 
L 403.99598 187.620479 
L 410.725628 229.905626 
L 412.968844 240.989651 
L 415.21206 248.564991 
L 417.455276 251.882711 
L 419.698492 250.614802 
L 421.941709 244.886618 
L 424.184925 235.264474 
L 426.428141 222.699666 
L 433.157789 180.472588 
L 435.401005 169.540465 
L 437.644221 162.163482 
L 439.887437 159.070965 
L 442.130653 160.568655 
L 444.373869 166.508484 
L 446.617085 176.303209 
L 448.860302 188.984476 
L 453.346734 217.830272 
L 455.58995 231.14296 
L 457.833166 241.920457 
L 460.076382 249.097244 
L 462.319598 251.963789 
L 464.562814 250.23669 
L 466.80603 244.086698 
L 469.049246 234.121831 
L 471.292462 221.327266 
L 475.778894 192.463482 
L 478.022111 179.247882 
L 480.265327 168.627698 
L 482.508543 161.652895 
L 484.751759 159.013037 
L 486.994975 160.969114 
L 489.238191 167.327737 
L 491.481407 177.460263 
L 493.724623 190.364937 
L 498.211055 219.239515 
L 500.454271 232.354734 
L 502.697487 242.814958 
L 504.940704 249.586038 
L 507.18392 251.998551 
L 509.427136 249.813984 
L 511.670352 243.248314 
L 513.913568 232.950656 
L 516.156784 219.939088 
L 518.4 205.5 
L 518.4 205.5 
" style="fill:none;stroke:#008000;stroke-linecap:square;"/>
   </g>
   <g id="patch_8">
    <path d="M 518.4 252 
L 518.4 159 
" style="fill:none;stroke:#000000;stroke-linecap:square;stroke-linejoin:miter;"/>
   </g>
   <g id="patch_9">
    <path d="M 72 252 
L 72 159 
" style="fill:none;stroke:#000000;stroke-linecap:square;stroke-linejoin:miter;"/>
   </g>
   <g id="patch_10">
    <path d="M 72 252 
L 518.4 252 
" style="fill:none;stroke:#000000;stroke-linecap:square;stroke-linejoin:miter;"/>
   </g>
   <g id="patch_11">
    <path d="M 72 159 
L 518.4 159 
" style="fill:none;stroke:#000000;stroke-linecap:square;stroke-linejoin:miter;"/>
   </g>
   <g id="matplotlib.axis_3">
    <g id="xtick_8">
     <g id="line2d_28">
      <g>
       <use style="stroke:#000000;stroke-width:0.5;" x="72.0" xlink:href="#mdb5eb7c02c" y="252.0"/>
      </g>
     </g>
     <g id="line2d_29">
      <g>
       <use style="stroke:#000000;stroke-width:0.5;" x="72.0" xlink:href="#mb69b80334b" y="159.0"/>
      </g>
     </g>
     <g id="text_14">
      <!-- 0 -->
      <g transform="translate(68.81875 263.5984375)scale(0.1 -0.1)">
       <use xlink:href="#BitstreamVeraSans-Roman-30"/>
      </g>
     </g>
    </g>
    <g id="xtick_9">
     <g id="line2d_30">
      <g>
       <use style="stroke:#000000;stroke-width:0.5;" x="143.046766596" xlink:href="#mdb5eb7c02c" y="252.0"/>
      </g>
     </g>
     <g id="line2d_31">
      <g>
       <use style="stroke:#000000;stroke-width:0.5;" x="143.046766596" xlink:href="#mb69b80334b" y="159.0"/>
      </g>
     </g>
     <g id="text_15">
      <!-- 1 -->
      <g transform="translate(139.865516596 263.5984375)scale(0.1 -0.1)">
       <use xlink:href="#BitstreamVeraSans-Roman-31"/>
      </g>
     </g>
    </g>
    <g id="xtick_10">
     <g id="line2d_32">
      <g>
       <use style="stroke:#000000;stroke-width:0.5;" x="214.093533192" xlink:href="#mdb5eb7c02c" y="252.0"/>
      </g>
     </g>
     <g id="line2d_33">
      <g>
       <use style="stroke:#000000;stroke-width:0.5;" x="214.093533192" xlink:href="#mb69b80334b" y="159.0"/>
      </g>
     </g>
     <g id="text_16">
      <!-- 2 -->
      <g transform="translate(210.912283192 263.5984375)scale(0.1 -0.1)">
       <use xlink:href="#BitstreamVeraSans-Roman-32"/>
      </g>
     </g>
    </g>
    <g id="xtick_11">
     <g id="line2d_34">
      <g>
       <use style="stroke:#000000;stroke-width:0.5;" x="285.140299789" xlink:href="#mdb5eb7c02c" y="252.0"/>
      </g>
     </g>
     <g id="line2d_35">
      <g>
       <use style="stroke:#000000;stroke-width:0.5;" x="285.140299789" xlink:href="#mb69b80334b" y="159.0"/>
      </g>
     </g>
     <g id="text_17">
      <!-- 3 -->
      <g transform="translate(281.959049789 263.5984375)scale(0.1 -0.1)">
       <use xlink:href="#BitstreamVeraSans-Roman-33"/>
      </g>
     </g>
    </g>
    <g id="xtick_12">
     <g id="line2d_36">
      <g>
       <use style="stroke:#000000;stroke-width:0.5;" x="356.187066385" xlink:href="#mdb5eb7c02c" y="252.0"/>
      </g>
     </g>
     <g id="line2d_37">
      <g>
       <use style="stroke:#000000;stroke-width:0.5;" x="356.187066385" xlink:href="#mb69b80334b" y="159.0"/>
      </g>
     </g>
     <g id="text_18">
      <!-- 4 -->
      <g transform="translate(353.005816385 263.5984375)scale(0.1 -0.1)">
       <use xlink:href="#BitstreamVeraSans-Roman-34"/>
      </g>
     </g>
    </g>
    <g id="xtick_13">
     <g id="line2d_38">
      <g>
       <use style="stroke:#000000;stroke-width:0.5;" x="427.233832981" xlink:href="#mdb5eb7c02c" y="252.0"/>
      </g>
     </g>
     <g id="line2d_39">
      <g>
       <use style="stroke:#000000;stroke-width:0.5;" x="427.233832981" xlink:href="#mb69b80334b" y="159.0"/>
      </g>
     </g>
     <g id="text_19">
      <!-- 5 -->
      <g transform="translate(424.052582981 263.5984375)scale(0.1 -0.1)">
       <use xlink:href="#BitstreamVeraSans-Roman-35"/>
      </g>
     </g>
    </g>
    <g id="xtick_14">
     <g id="line2d_40">
      <g>
       <use style="stroke:#000000;stroke-width:0.5;" x="498.280599577" xlink:href="#mdb5eb7c02c" y="252.0"/>
      </g>
     </g>
     <g id="line2d_41">
      <g>
       <use style="stroke:#000000;stroke-width:0.5;" x="498.280599577" xlink:href="#mb69b80334b" y="159.0"/>
      </g>
     </g>
     <g id="text_20">
      <!-- 6 -->
      <g transform="translate(495.099349577 263.5984375)scale(0.1 -0.1)">
       <use xlink:href="#BitstreamVeraSans-Roman-36"/>
      </g>
     </g>
    </g>
   </g>
   <g id="matplotlib.axis_4">
    <g id="ytick_6">
     <g id="line2d_42">
      <g>
       <use style="stroke:#000000;stroke-width:0.5;" x="72.0" xlink:href="#m2bed479018" y="252.0"/>
      </g>
     </g>
     <g id="line2d_43">
      <g>
       <use style="stroke:#000000;stroke-width:0.5;" x="518.4" xlink:href="#m3ff95ef8ae" y="252.0"/>
      </g>
     </g>
     <g id="text_21">
      <!-- −1.0 -->
      <g transform="translate(43.7171875 254.759375)scale(0.1 -0.1)">
       <use xlink:href="#BitstreamVeraSans-Roman-2212"/>
       <use x="83.7890625" xlink:href="#BitstreamVeraSans-Roman-31"/>
       <use x="147.412109375" xlink:href="#BitstreamVeraSans-Roman-2e"/>
       <use x="179.19921875" xlink:href="#BitstreamVeraSans-Roman-30"/>
      </g>
     </g>
    </g>
    <g id="ytick_7">
     <g id="line2d_44">
      <g>
       <use style="stroke:#000000;stroke-width:0.5;" x="72.0" xlink:href="#m2bed479018" y="228.75"/>
      </g>
     </g>
     <g id="line2d_45">
      <g>
       <use style="stroke:#000000;stroke-width:0.5;" x="518.4" xlink:href="#m3ff95ef8ae" y="228.75"/>
      </g>
     </g>
     <g id="text_22">
      <!-- −0.5 -->
      <g transform="translate(43.7171875 231.509375)scale(0.1 -0.1)">
       <use xlink:href="#BitstreamVeraSans-Roman-2212"/>
       <use x="83.7890625" xlink:href="#BitstreamVeraSans-Roman-30"/>
       <use x="147.412109375" xlink:href="#BitstreamVeraSans-Roman-2e"/>
       <use x="179.19921875" xlink:href="#BitstreamVeraSans-Roman-35"/>
      </g>
     </g>
    </g>
    <g id="ytick_8">
     <g id="line2d_46">
      <g>
       <use style="stroke:#000000;stroke-width:0.5;" x="72.0" xlink:href="#m2bed479018" y="205.5"/>
      </g>
     </g>
     <g id="line2d_47">
      <g>
       <use style="stroke:#000000;stroke-width:0.5;" x="518.4" xlink:href="#m3ff95ef8ae" y="205.5"/>
      </g>
     </g>
     <g id="text_23">
      <!-- 0.0 -->
      <g transform="translate(52.096875 208.259375)scale(0.1 -0.1)">
       <use xlink:href="#BitstreamVeraSans-Roman-30"/>
       <use x="63.623046875" xlink:href="#BitstreamVeraSans-Roman-2e"/>
       <use x="95.41015625" xlink:href="#BitstreamVeraSans-Roman-30"/>
      </g>
     </g>
    </g>
    <g id="ytick_9">
     <g id="line2d_48">
      <g>
       <use style="stroke:#000000;stroke-width:0.5;" x="72.0" xlink:href="#m2bed479018" y="182.25"/>
      </g>
     </g>
     <g id="line2d_49">
      <g>
       <use style="stroke:#000000;stroke-width:0.5;" x="518.4" xlink:href="#m3ff95ef8ae" y="182.25"/>
      </g>
     </g>
     <g id="text_24">
      <!-- 0.5 -->
      <g transform="translate(52.096875 185.009375)scale(0.1 -0.1)">
       <use xlink:href="#BitstreamVeraSans-Roman-30"/>
       <use x="63.623046875" xlink:href="#BitstreamVeraSans-Roman-2e"/>
       <use x="95.41015625" xlink:href="#BitstreamVeraSans-Roman-35"/>
      </g>
     </g>
    </g>
    <g id="ytick_10">
     <g id="line2d_50">
      <g>
       <use style="stroke:#000000;stroke-width:0.5;" x="72.0" xlink:href="#m2bed479018" y="159.0"/>
      </g>
     </g>
     <g id="line2d_51">
      <g>
       <use style="stroke:#000000;stroke-width:0.5;" x="518.4" xlink:href="#m3ff95ef8ae" y="159.0"/>
      </g>
     </g>
     <g id="text_25">
      <!-- 1.0 -->
      <g transform="translate(52.096875 161.759375)scale(0.1 -0.1)">
       <use xlink:href="#BitstreamVeraSans-Roman-31"/>
       <use x="63.623046875" xlink:href="#BitstreamVeraSans-Roman-2e"/>
       <use x="95.41015625" xlink:href="#BitstreamVeraSans-Roman-30"/>
      </g>
     </g>
    </g>
   </g>
   <g id="text_26">
    <!-- subplot(2,1,2) -->
    <g transform="translate(253.0153125 154.0)scale(0.12 -0.12)">
     <use xlink:href="#BitstreamVeraSans-Roman-73"/>
     <use x="52.099609375" xlink:href="#BitstreamVeraSans-Roman-75"/>
     <use x="115.478515625" xlink:href="#BitstreamVeraSans-Roman-62"/>
     <use x="178.955078125" xlink:href="#BitstreamVeraSans-Roman-70"/>
     <use x="242.431640625" xlink:href="#BitstreamVeraSans-Roman-6c"/>
     <use x="270.21484375" xlink:href="#BitstreamVeraSans-Roman-6f"/>
     <use x="331.396484375" xlink:href="#BitstreamVeraSans-Roman-74"/>
     <use x="370.60546875" xlink:href="#BitstreamVeraSans-Roman-28"/>
     <use x="409.619140625" xlink:href="#BitstreamVeraSans-Roman-32"/>
     <use x="473.2421875" xlink:href="#BitstreamVeraSans-Roman-2c"/>
     <use x="505.029296875" xlink:href="#BitstreamVeraSans-Roman-31"/>
     <use x="568.65234375" xlink:href="#BitstreamVeraSans-Roman-2c"/>
     <use x="600.439453125" xlink:href="#BitstreamVeraSans-Roman-32"/>
     <use x="664.0625" xlink:href="#BitstreamVeraSans-Roman-29"/>
    </g>
   </g>
  </g>
 </g>
 <defs>
  <clipPath id="p8696d9203b">
   <rect height="93.0" width="446.4" x="72.0" y="159.0"/>
  </clipPath>
  <clipPath id="p8977ff8bff">
   <rect height="93.0" width="446.4" x="72.0" y="28.8"/>
  </clipPath>
 </defs>
</svg>
